<svg version="1.1" id="Layer_1" xmlns="http://www.w3.org/2000/svg" xmlns:xlink="http://www.w3.org/1999/xlink" x="0px" y="0px"
	 width="100%" viewBox="0 0 622 266" enable-background="new 0 0 622 266" xml:space="preserve">
<path fill="#FEFEFE" opacity="1.000000" stroke="none" 
	d="
M386.000000,267.000000 
	C257.369385,267.000000 129.238785,267.000000 1.054086,267.000000 
	C1.054086,178.394363 1.054086,89.788689 1.054086,1.091504 
	C208.213974,1.091504 415.428009,1.091504 622.821045,1.091504 
	C622.821045,89.666382 622.821045,178.333160 622.821045,267.000000 
	C544.122009,267.000000 465.311005,267.000000 386.000000,267.000000 
M41.648972,57.602219 
	C30.502434,67.629631 19.305578,77.602432 8.279673,87.760773 
	C7.046069,88.897316 6.782253,91.086472 6.068707,92.787476 
	C7.708378,93.225502 9.323972,93.870056 10.992038,94.064529 
	C17.055027,94.771400 23.414606,94.411743 29.143564,96.157104 
	C37.558525,98.720772 44.107700,104.339890 48.436981,112.472076 
	C46.775375,113.841026 45.487774,114.878525 44.225246,115.945671 
	C33.955181,124.626480 24.741695,134.129669 19.858183,147.040817 
	C18.084713,151.729553 18.914625,153.175293 23.854197,153.246216 
	C30.352303,153.339539 36.865696,153.520065 43.347649,153.183762 
	C47.710987,152.957382 49.029976,154.296738 48.997623,158.763550 
	C48.796059,186.593002 48.949295,214.424850 48.846085,242.255386 
	C48.828705,246.940796 50.617176,248.804703 55.355305,248.796143 
	C104.017593,248.708313 152.680130,248.717789 201.342484,248.787994 
	C205.257965,248.793640 208.254105,247.685318 211.067154,244.816574 
	C221.100388,234.584641 231.244217,224.451981 241.633377,214.584122 
	C244.574936,211.790176 245.781143,209.014130 245.758560,205.043228 
	C245.625931,181.712662 245.602844,158.380112 245.825180,135.050919 
	C245.848969,132.555115 247.110031,129.537460 248.807129,127.689369 
	C254.322708,121.683052 260.462799,116.251534 266.006989,110.269257 
	C267.463379,108.697800 268.816162,105.494820 268.185028,103.795670 
	C265.728729,97.182678 263.236664,90.322594 259.227020,84.633408 
	C256.280334,80.452415 250.948608,77.952377 246.289825,74.406448 
	C248.902298,64.773239 252.678177,55.417637 263.159546,50.484116 
	C264.620972,49.796234 265.448547,47.761852 266.569550,46.350784 
	C264.770874,45.502129 262.975372,43.919777 261.173065,43.912010 
	C214.844391,43.712322 168.514999,43.677639 122.185745,43.612255 
	C114.454666,43.601345 107.538902,46.024090 102.630280,52.010143 
	C98.135445,57.491585 94.469666,63.652870 89.573479,69.371452 
	C88.707191,69.255333 87.840897,69.139221 86.469063,68.589989 
	C80.983566,61.872993 74.038483,57.140205 66.052170,53.139874 
	C65.367287,53.109161 64.682396,53.078453 63.377972,52.968128 
	C62.972500,52.874039 62.567032,52.779953 61.828053,52.025665 
	C58.819077,52.211502 55.810104,52.397339 52.209351,52.751007 
	C51.805046,52.818340 51.400738,52.885674 50.684990,52.541840 
	C50.073635,52.936012 49.462276,53.330185 48.183937,53.925339 
	C46.880543,54.381100 45.577152,54.836861 43.602528,55.193481 
	C43.095596,55.827400 42.588665,56.461323 41.648972,57.602219 
M308.331421,218.549332 
	C308.353058,219.548782 308.378479,220.548187 308.395752,221.547714 
	C308.607086,233.777985 310.435730,235.140533 322.640625,233.034271 
	C325.877289,232.475693 326.786133,231.026443 326.626068,228.026428 
	C325.819122,212.901596 325.191620,197.766846 324.326019,182.645615 
	C323.662140,171.047852 323.546387,171.054474 311.725403,171.041382 
	C299.963501,171.028351 299.985504,171.035248 296.549988,181.992355 
	C294.759369,187.703400 292.875244,193.385132 291.033356,199.080109 
	C288.293671,194.608871 286.591705,190.312363 285.092255,185.946304 
	C279.645630,170.087036 279.674500,170.140274 262.887451,171.023788 
	C258.701630,171.244064 256.594940,172.610992 256.499847,177.260223 
	C256.176453,193.071091 255.516357,208.875320 254.950653,224.680862 
	C254.667267,232.598801 255.623978,233.638809 263.520752,233.449753 
	C265.175598,233.410141 267.117096,233.584579 268.399719,232.799606 
	C269.929199,231.863556 271.808929,230.080017 271.943420,228.525742 
	C272.588287,221.073364 272.712646,213.575058 272.980530,206.091568 
	C273.056244,203.976608 272.992096,201.856674 272.992096,199.739014 
	C273.472961,199.737091 273.953827,199.735168 274.434692,199.733246 
	C277.360870,209.260559 280.227356,218.807037 283.270935,228.296722 
	C283.789948,229.914993 284.721771,232.014023 286.054901,232.649994 
	C291.323059,235.163101 296.296844,232.456192 298.006409,226.709656 
	C300.632538,217.882187 303.355377,209.083511 306.037170,200.272614 
	C306.398956,200.329483 306.760773,200.386368 307.122559,200.443237 
	C307.492828,206.159927 307.863068,211.876617 308.331421,218.549332 
M467.410309,209.123566 
	C470.550018,214.996689 474.146423,220.680252 476.687103,226.801987 
	C478.776917,231.837387 482.181946,233.498978 487.072632,233.426651 
	C488.730377,233.402130 490.392120,233.009033 492.039948,233.077164 
	C496.017395,233.241653 497.093170,231.318588 497.053772,227.557846 
	C496.893250,212.227570 496.988068,196.894592 496.988220,181.562622 
	C496.988342,170.488968 496.992096,170.607727 485.941833,170.991837 
	C481.749817,171.137573 479.973328,172.611435 480.169800,177.001236 
	C480.462067,183.532654 480.245544,190.086838 480.245544,196.631332 
	C478.411560,195.837402 477.633301,194.866257 477.061218,193.785950 
	C474.022491,188.047760 470.867065,182.361862 468.092499,176.496796 
	C466.372192,172.860245 463.775452,171.186722 459.899109,171.149246 
	C457.733734,171.128311 455.559509,171.190506 453.405457,171.015701 
	C449.564148,170.703979 448.126770,172.205765 448.173126,176.193390 
	C448.355133,191.856552 448.246735,207.523087 448.246582,223.188370 
	C448.246490,233.831955 448.660919,234.126007 459.489929,233.515884 
	C463.381256,233.296631 465.108826,231.962830 464.860809,227.743530 
	C464.509399,221.764893 464.743958,215.749557 464.804626,209.750671 
	C464.818817,208.347641 464.580322,205.973557 467.410309,209.123566 
M509.855865,171.205734 
	C505.687592,170.963608 503.995941,172.657562 504.096802,177.080353 
	C504.362274,188.722366 504.213165,200.374435 504.182281,212.022400 
	C504.156311,221.810867 508.665222,228.769318 517.827026,231.886322 
	C522.412659,233.446411 527.576172,233.936920 532.462585,233.863617 
	C545.978821,233.660843 554.006592,225.325302 554.164185,211.855652 
	C554.273193,202.538483 554.188110,193.219040 554.188538,183.900604 
	C554.189148,170.075806 553.991394,169.984467 539.936096,171.085693 
	C536.178711,171.380096 534.733582,172.766983 534.800110,176.636444 
	C534.994751,187.948273 534.812927,199.266037 534.888916,210.580750 
	C534.914673,214.408691 533.324341,216.789001 529.445801,216.814911 
	C525.488831,216.841324 523.483032,214.801514 523.565491,210.535690 
	C523.739075,201.553467 523.614319,192.565475 523.613708,183.579849 
	C523.612793,170.820709 523.613464,170.820709 509.855865,171.205734 
M598.422058,181.927826 
	C600.535767,173.758881 599.715515,172.427948 591.294922,171.097214 
	C588.350281,170.631836 585.343018,170.367905 582.363037,170.355820 
	C571.465637,170.311600 563.778320,175.772720 561.720947,184.838318 
	C559.367920,195.206528 563.930786,204.164673 573.991150,208.919662 
	C575.044128,209.417343 576.386902,209.639832 577.106506,210.433258 
	C578.525085,211.997360 579.600708,213.872482 580.818176,215.618973 
	C578.693787,216.060150 576.411987,217.206482 574.482117,216.775894 
	C571.645447,216.143005 569.105347,214.271255 566.344360,213.162552 
	C565.302551,212.744171 563.565430,212.449219 562.882019,213.004593 
	C558.055054,216.926926 558.521118,227.870010 564.223206,230.441574 
	C569.178467,232.676331 574.998291,233.770782 580.473755,233.912720 
	C591.680298,234.203201 598.282288,228.743515 600.773071,218.508072 
	C603.227234,208.423172 599.537659,200.861435 589.533508,195.521286 
	C588.065674,194.737762 586.353821,194.275955 585.111755,193.238205 
	C583.483398,191.877716 582.209595,190.092972 580.783264,188.490707 
	C582.987488,187.874390 585.178528,187.201920 587.404663,186.678909 
	C588.004639,186.537949 588.817078,186.669937 589.352478,186.983292 
	C594.516052,190.005127 596.805725,187.302704 598.422058,181.927826 
M388.843384,234.006195 
	C393.739624,233.060028 398.635834,232.113861 404.429993,230.994171 
	C405.514923,231.530182 407.761810,233.007889 410.229706,233.768112 
	C413.451080,234.760422 416.242126,233.798096 417.485413,230.321243 
	C418.856934,226.485809 420.456268,221.231247 416.641205,219.351654 
	C411.796326,216.964722 412.701202,213.751968 412.543091,210.172852 
	C412.367249,206.191818 412.440521,202.154984 411.771332,198.251114 
	C410.785675,192.501114 407.128906,188.813110 401.352844,188.402832 
	C396.277222,188.042267 391.105682,188.701065 386.001587,189.178146 
	C382.079010,189.544785 380.567627,191.871994 381.401001,195.814682 
	C382.217621,199.677994 383.754181,201.867722 388.250122,200.271500 
	C390.054932,199.630722 392.276184,199.599991 394.171387,199.977264 
	C395.403412,200.222565 396.389038,201.705811 397.953674,203.031433 
	C391.957062,204.147614 387.101837,204.526978 382.618195,206.021271 
	C377.255737,207.808472 375.313538,212.466507 375.164001,217.899017 
	C374.943054,225.926559 379.643188,231.808594 388.843384,234.006195 
M363.200348,221.097092 
	C355.207031,223.403397 352.179779,222.864563 350.490295,218.369049 
	C353.858398,218.110352 357.118805,218.012253 360.334320,217.580078 
	C366.349304,216.771637 370.458313,213.669693 371.823334,207.470154 
	C373.257446,200.956833 371.364685,195.528625 366.142181,191.546921 
	C360.713043,187.407669 354.369171,187.072006 348.046967,188.798340 
	C337.940094,191.558105 332.544434,200.845596 333.280243,214.121109 
	C333.725189,222.148712 337.225647,228.656448 344.764191,232.069397 
	C352.505066,235.573929 360.388794,234.881134 367.829224,230.956696 
	C371.089447,229.237106 370.007141,226.195587 369.086548,223.432510 
	C368.223419,220.841782 366.905243,219.288712 363.200348,221.097092 
M423.605194,212.499023 
	C423.605133,215.998779 423.560852,219.499191 423.613129,222.998169 
	C423.781921,234.298660 421.572754,233.326126 434.448792,233.553146 
	C438.950806,233.632523 440.040710,231.813736 439.987396,227.600159 
	C439.782745,211.437210 439.905334,195.270126 439.904694,179.104584 
	C439.904358,170.433197 439.792694,170.328186 430.928955,170.649231 
	C430.430023,170.667297 429.929749,170.766388 429.434265,170.742264 
	C425.009918,170.526764 423.380127,172.400864 423.503815,177.004471 
	C423.812653,188.495361 423.605743,200.000137 423.605194,212.499023 
z"/>
<path fill="#1B528A" opacity="1.000000" stroke="none" 
	d="
M50.996433,52.953007 
	C51.400738,52.885674 51.805046,52.818340 52.960556,52.790565 
	C56.528362,52.782040 59.344959,52.733955 62.161560,52.685867 
	C62.567032,52.779953 62.972500,52.874039 63.873260,53.263119 
	C64.969788,53.591953 65.571022,53.625797 66.172264,53.659637 
	C74.038483,57.140205 80.983566,61.872993 86.807907,69.131973 
	C88.244026,69.620842 89.341293,69.567711 90.438568,69.514580 
	C94.469666,63.652870 98.135445,57.491585 102.630280,52.010143 
	C107.538902,46.024090 114.454666,43.601345 122.185745,43.612255 
	C168.514999,43.677639 214.844391,43.712322 261.173065,43.912010 
	C262.975372,43.919777 264.770874,45.502129 266.569550,46.350784 
	C265.448547,47.761852 264.620972,49.796234 263.159546,50.484116 
	C252.678177,55.417637 248.902298,64.773239 246.289825,74.406448 
	C250.948608,77.952377 256.280334,80.452415 259.227020,84.633408 
	C263.236664,90.322594 265.728729,97.182678 268.185028,103.795670 
	C268.816162,105.494820 267.463379,108.697800 266.006989,110.269257 
	C260.462799,116.251534 254.322708,121.683052 248.807129,127.689369 
	C247.110031,129.537460 245.848969,132.555115 245.825180,135.050919 
	C245.602844,158.380112 245.625931,181.712662 245.758560,205.043228 
	C245.781143,209.014130 244.574936,211.790176 241.633377,214.584122 
	C231.244217,224.451981 221.100388,234.584641 211.067154,244.816574 
	C208.254105,247.685318 205.257965,248.793640 201.342484,248.787994 
	C152.680130,248.717789 104.017593,248.708313 55.355305,248.796143 
	C50.617176,248.804703 48.828705,246.940796 48.846085,242.255386 
	C48.949295,214.424850 48.796059,186.593002 48.997623,158.763550 
	C49.029976,154.296738 47.710987,152.957382 43.347649,153.183762 
	C36.865696,153.520065 30.352303,153.339539 23.854197,153.246216 
	C18.914625,153.175293 18.084713,151.729553 19.858183,147.040817 
	C24.741695,134.129669 33.955181,124.626480 44.225246,115.945671 
	C45.487774,114.878525 46.775375,113.841026 48.436981,112.472076 
	C44.107700,104.339890 37.558525,98.720772 29.143564,96.157104 
	C23.414606,94.411743 17.055027,94.771400 10.992038,94.064529 
	C9.323972,93.870056 7.708378,93.225502 6.068705,92.787476 
	C6.782253,91.086472 7.046069,88.897316 8.279673,87.760773 
	C19.305578,77.602432 30.502434,67.629631 42.170677,57.319065 
	C43.219509,56.454815 43.746635,55.873718 44.273762,55.292618 
	C45.577152,54.836861 46.880543,54.381100 48.823116,53.905334 
	C49.973675,53.574554 50.485054,53.263779 50.996433,52.953007 
M55.150898,155.927017 
	C55.146805,182.910782 55.250751,209.895432 55.033798,236.877487 
	C54.997021,241.451340 56.194824,242.730484 60.829899,242.712387 
	C105.968712,242.536118 151.108490,242.606323 196.247986,242.606323 
	C197.874374,242.606323 199.500748,242.606339 201.154205,242.606339 
	C201.154205,201.454544 201.154205,160.862106 201.154205,119.137215 
	C198.579163,121.059807 196.780243,122.188370 195.233963,123.594719 
	C188.691650,129.545029 185.384659,137.350342 183.239517,145.657684 
	C181.375992,152.874542 182.465469,153.135590 173.147141,153.127609 
	C135.669724,153.095474 98.192184,153.087646 60.715042,153.194687 
	C58.879658,153.199921 57.047611,154.375107 55.150898,155.927017 
M36.829487,131.351425 
	C33.325809,136.210938 29.822134,141.070435 25.549475,146.996490 
	C29.400520,146.996490 31.378986,146.996506 33.357452,146.996506 
	C77.345757,146.996521 121.334053,146.996506 165.322357,146.996506 
	C176.078262,146.996506 175.653473,146.810043 179.977554,136.960190 
	C183.108353,129.828537 187.554825,123.274467 191.613464,116.111855 
	C190.142227,116.111855 188.218781,116.111855 186.295334,116.111855 
	C146.305969,116.111847 106.309525,116.522003 66.332062,115.832291 
	C55.938835,115.652977 48.413952,119.052452 41.668591,126.010757 
	C40.161907,127.564987 38.724392,129.186264 36.829487,131.351425 
M142.499878,110.375008 
	C156.493958,110.374985 170.545685,109.589066 184.464920,110.609703 
	C196.845505,111.517532 206.714996,108.700890 214.736221,98.918129 
	C218.283813,94.591484 223.084595,91.297714 227.278946,87.493683 
	C229.281982,85.677055 231.197464,83.763893 234.264267,80.831520 
	C230.896896,80.831520 229.129837,80.831528 227.362762,80.831528 
	C187.046494,80.831482 146.725662,81.163376 106.417046,80.608032 
	C95.767113,80.461296 86.798637,81.841476 80.060204,90.717003 
	C78.878578,92.273384 77.040138,93.319313 75.565536,94.667175 
	C70.259605,99.517075 64.979576,104.395309 59.689762,109.262840 
	C59.869610,109.633629 60.049454,110.004425 60.229301,110.375214 
	C87.319489,110.375214 114.409676,110.375214 142.499878,110.375008 
M246.757706,57.219769 
	C248.243698,55.120754 249.729675,53.021740 251.639755,50.323673 
	C249.824661,50.209602 248.729691,50.082951 247.634445,50.080299 
	C205.976044,49.979446 164.317642,49.844086 122.659203,49.827923 
	C110.697067,49.823284 97.426796,62.123131 95.403816,75.002228 
	C97.266151,75.002228 99.080574,75.002220 100.894989,75.002220 
	C130.222595,75.002228 159.550186,75.002266 188.877792,75.002243 
	C204.374756,75.002235 219.872299,74.932076 235.368240,75.058449 
	C238.651382,75.085220 240.319931,74.467308 241.181366,70.757057 
	C242.217529,66.294296 244.587936,62.141319 246.757706,57.219769 
M223.586502,224.087082 
	C228.068237,219.616470 232.714417,215.293854 236.942917,210.595337 
	C238.432739,208.939926 239.690125,206.372498 239.711914,204.207993 
	C239.918243,183.719421 239.844147,163.227905 239.815948,142.737305 
	C239.813904,141.245682 239.539734,139.754410 239.378799,138.128571 
	C238.331985,138.433289 237.937271,138.431808 237.724930,138.627838 
	C235.402145,140.772263 233.127014,142.968369 230.801544,145.109833 
	C226.689484,148.896530 225.341980,148.245178 223.017197,143.333099 
	C219.987106,136.930756 216.252319,130.849487 212.592407,124.767464 
	C211.795547,123.443260 210.032166,122.700691 208.141754,121.251648 
	C208.141754,160.814926 208.141754,199.314911 208.141754,239.284882 
	C213.729401,233.784195 218.404327,229.182022 223.586502,224.087082 
M58.529232,102.112083 
	C67.603645,93.899651 76.678055,85.687210 85.720398,77.503799 
	C80.561562,69.842773 74.665474,64.344910 67.069756,60.827724 
	C58.437794,56.830708 50.533592,57.104252 43.234219,64.194420 
	C35.948643,71.271179 28.165443,77.834839 20.631847,84.658157 
	C19.741386,85.464668 19.049353,86.490257 17.749697,88.022026 
	C33.126427,88.497704 44.142303,95.546288 52.848850,107.237350 
	C54.841564,105.447693 56.420822,104.029366 58.529232,102.112083 
M232.886246,91.384346 
	C225.609207,99.345490 218.332169,107.306641 211.143311,115.171310 
	C213.649948,117.884010 217.425079,121.376854 220.463150,125.423096 
	C223.532745,129.511276 225.871902,134.147873 229.367920,139.927795 
	C239.945618,128.913620 250.445877,118.045715 260.819427,107.058197 
	C261.681244,106.145378 262.290771,104.269341 261.992493,103.102951 
	C259.931976,95.045914 256.605377,87.723732 249.012451,83.224098 
	C245.774155,81.305054 242.926239,81.055473 240.183029,84.267059 
	C238.137924,86.661346 235.672318,88.696457 232.886246,91.384346 
z"/>
<path fill="#F08009" opacity="1.000000" stroke="none" 
	d="
M308.282349,218.071320 
	C307.863068,211.876617 307.492828,206.159927 307.122559,200.443237 
	C306.760773,200.386368 306.398956,200.329483 306.037170,200.272614 
	C303.355377,209.083511 300.632538,217.882187 298.006409,226.709656 
	C296.296844,232.456192 291.323059,235.163101 286.054901,232.649994 
	C284.721771,232.014023 283.789948,229.914993 283.270935,228.296722 
	C280.227356,218.807037 277.360870,209.260559 274.434692,199.733246 
	C273.953827,199.735168 273.472961,199.737091 272.992096,199.739014 
	C272.992096,201.856674 273.056244,203.976608 272.980530,206.091568 
	C272.712646,213.575058 272.588287,221.073364 271.943420,228.525742 
	C271.808929,230.080017 269.929199,231.863556 268.399719,232.799606 
	C267.117096,233.584579 265.175598,233.410141 263.520752,233.449753 
	C255.623978,233.638809 254.667267,232.598801 254.950653,224.680862 
	C255.516357,208.875320 256.176453,193.071091 256.499847,177.260223 
	C256.594940,172.610992 258.701630,171.244064 262.887451,171.023788 
	C279.674500,170.140274 279.645630,170.087036 285.092255,185.946304 
	C286.591705,190.312363 288.293671,194.608871 291.033356,199.080109 
	C292.875244,193.385132 294.759369,187.703400 296.549988,181.992355 
	C299.985504,171.035248 299.963501,171.028351 311.725403,171.041382 
	C323.546387,171.054474 323.662140,171.047852 324.326019,182.645615 
	C325.191620,197.766846 325.819122,212.901596 326.626068,228.026428 
	C326.786133,231.026443 325.877289,232.475693 322.640625,233.034271 
	C310.435730,235.140533 308.607086,233.777985 308.395752,221.547714 
	C308.378479,220.548187 308.353058,219.548782 308.282349,218.071320 
z"/>
<path fill="#F0810A" opacity="1.000000" stroke="none" 
	d="
M467.206787,208.797714 
	C464.580322,205.973557 464.818817,208.347641 464.804626,209.750671 
	C464.743958,215.749557 464.509399,221.764893 464.860809,227.743530 
	C465.108826,231.962830 463.381256,233.296631 459.489929,233.515884 
	C448.660919,234.126007 448.246490,233.831955 448.246582,223.188370 
	C448.246735,207.523087 448.355133,191.856552 448.173126,176.193390 
	C448.126770,172.205765 449.564148,170.703979 453.405457,171.015701 
	C455.559509,171.190506 457.733734,171.128311 459.899109,171.149246 
	C463.775452,171.186722 466.372192,172.860245 468.092499,176.496796 
	C470.867065,182.361862 474.022491,188.047760 477.061218,193.785950 
	C477.633301,194.866257 478.411560,195.837402 480.245544,196.631332 
	C480.245544,190.086838 480.462067,183.532654 480.169800,177.001236 
	C479.973328,172.611435 481.749817,171.137573 485.941833,170.991837 
	C496.992096,170.607727 496.988342,170.488968 496.988220,181.562622 
	C496.988068,196.894592 496.893250,212.227570 497.053772,227.557846 
	C497.093170,231.318588 496.017395,233.241653 492.039948,233.077164 
	C490.392120,233.009033 488.730377,233.402130 487.072632,233.426651 
	C482.181946,233.498978 478.776917,231.837387 476.687103,226.801987 
	C474.146423,220.680252 470.550018,214.996689 467.206787,208.797714 
z"/>
<path fill="#EF8007" opacity="1.000000" stroke="none" 
	d="
M510.311401,171.166199 
	C523.613464,170.820709 523.612793,170.820709 523.613708,183.579849 
	C523.614319,192.565475 523.739075,201.553467 523.565491,210.535690 
	C523.483032,214.801514 525.488831,216.841324 529.445801,216.814911 
	C533.324341,216.789001 534.914673,214.408691 534.888916,210.580750 
	C534.812927,199.266037 534.994751,187.948273 534.800110,176.636444 
	C534.733582,172.766983 536.178711,171.380096 539.936096,171.085693 
	C553.991394,169.984467 554.189148,170.075806 554.188538,183.900604 
	C554.188110,193.219040 554.273193,202.538483 554.164185,211.855652 
	C554.006592,225.325302 545.978821,233.660843 532.462585,233.863617 
	C527.576172,233.936920 522.412659,233.446411 517.827026,231.886322 
	C508.665222,228.769318 504.156311,221.810867 504.182281,212.022400 
	C504.213165,200.374435 504.362274,188.722366 504.096802,177.080353 
	C503.995941,172.657562 505.687592,170.963608 510.311401,171.166199 
z"/>
<path fill="#F0810A" opacity="1.000000" stroke="none" 
	d="
M598.291199,182.288788 
	C596.805725,187.302704 594.516052,190.005127 589.352478,186.983292 
	C588.817078,186.669937 588.004639,186.537949 587.404663,186.678909 
	C585.178528,187.201920 582.987488,187.874390 580.783264,188.490692 
	C582.209595,190.092972 583.483398,191.877716 585.111755,193.238205 
	C586.353821,194.275955 588.065674,194.737762 589.533508,195.521286 
	C599.537659,200.861435 603.227234,208.423172 600.773071,218.508072 
	C598.282288,228.743515 591.680298,234.203201 580.473755,233.912720 
	C574.998291,233.770782 569.178467,232.676331 564.223206,230.441574 
	C558.521118,227.870010 558.055054,216.926926 562.882019,213.004593 
	C563.565430,212.449219 565.302551,212.744171 566.344360,213.162552 
	C569.105347,214.271255 571.645447,216.143005 574.482117,216.775894 
	C576.411987,217.206482 578.693787,216.060150 580.818176,215.618973 
	C579.600708,213.872482 578.525085,211.997360 577.106506,210.433258 
	C576.386902,209.639832 575.044128,209.417343 573.991150,208.919662 
	C563.930786,204.164673 559.367920,195.206528 561.720947,184.838318 
	C563.778320,175.772720 571.465637,170.311600 582.363037,170.355820 
	C585.343018,170.367905 588.350281,170.631836 591.294922,171.097214 
	C599.715515,172.427948 600.535767,173.758881 598.291199,182.288788 
z"/>
<path fill="#F0820B" opacity="1.000000" stroke="none" 
	d="
M388.413025,233.978058 
	C379.643188,231.808594 374.943054,225.926559 375.164001,217.899017 
	C375.313538,212.466507 377.255737,207.808472 382.618195,206.021271 
	C387.101837,204.526978 391.957062,204.147614 397.953674,203.031433 
	C396.389038,201.705811 395.403412,200.222565 394.171387,199.977264 
	C392.276184,199.599991 390.054932,199.630722 388.250122,200.271500 
	C383.754181,201.867722 382.217621,199.677994 381.401001,195.814682 
	C380.567627,191.871994 382.079010,189.544785 386.001587,189.178146 
	C391.105682,188.701065 396.277222,188.042267 401.352844,188.402832 
	C407.128906,188.813110 410.785675,192.501114 411.771332,198.251114 
	C412.440521,202.154984 412.367249,206.191818 412.543091,210.172852 
	C412.701202,213.751968 411.796326,216.964722 416.641205,219.351654 
	C420.456268,221.231247 418.856934,226.485809 417.485413,230.321243 
	C416.242126,233.798096 413.451080,234.760422 410.229706,233.768112 
	C407.761810,233.007889 405.514923,231.530182 404.429993,230.994171 
	C398.635834,232.113861 393.739624,233.060028 388.413025,233.978058 
M397.425659,218.213333 
	C397.117218,216.182251 398.555206,212.885605 394.624084,213.328094 
	C393.264954,213.481094 391.475159,215.145050 391.036255,216.494278 
	C390.666840,217.629868 391.819611,220.413345 392.566345,220.515823 
	C394.054138,220.719986 395.725891,219.583420 397.425659,218.213333 
z"/>
<path fill="#F0820C" opacity="1.000000" stroke="none" 
	d="
M363.588074,220.971130 
	C366.905243,219.288712 368.223419,220.841782 369.086548,223.432510 
	C370.007141,226.195587 371.089447,229.237106 367.829224,230.956696 
	C360.388794,234.881134 352.505066,235.573929 344.764191,232.069397 
	C337.225647,228.656448 333.725189,222.148712 333.280243,214.121109 
	C332.544434,200.845596 337.940094,191.558105 348.046967,188.798340 
	C354.369171,187.072006 360.713043,187.407669 366.142181,191.546921 
	C371.364685,195.528625 373.257446,200.956833 371.823334,207.470154 
	C370.458313,213.669693 366.349304,216.771637 360.334320,217.580078 
	C357.118805,218.012253 353.858398,218.110352 350.490295,218.369049 
	C352.179779,222.864563 355.207031,223.403397 363.588074,220.971130 
M356.983398,203.941956 
	C355.307800,203.203751 353.523712,201.748764 351.994965,201.980255 
	C350.981659,202.133698 350.136688,204.645966 349.679077,206.235489 
	C349.580109,206.579361 351.405182,207.916885 352.445343,208.059967 
	C354.826843,208.387527 357.227875,208.201538 356.983398,203.941956 
z"/>
<path fill="#F0810B" opacity="1.000000" stroke="none" 
	d="
M423.605499,211.999176 
	C423.605743,200.000137 423.812653,188.495361 423.503815,177.004471 
	C423.380127,172.400864 425.009918,170.526764 429.434265,170.742264 
	C429.929749,170.766388 430.430023,170.667297 430.928955,170.649231 
	C439.792694,170.328186 439.904358,170.433197 439.904694,179.104584 
	C439.905334,195.270126 439.782745,211.437210 439.987396,227.600159 
	C440.040710,231.813736 438.950806,233.632523 434.448792,233.553146 
	C421.572754,233.326126 423.781921,234.298660 423.613129,222.998169 
	C423.560852,219.499191 423.605133,215.998779 423.605499,211.999176 
z"/>
<path fill="#A2B8CF" opacity="1.000000" stroke="none" 
	d="
M61.994804,52.355766 
	C59.344959,52.733955 56.528362,52.782040 53.256447,52.706650 
	C55.810104,52.397339 58.819077,52.211502 61.994804,52.355766 
z"/>
<path fill="#A2B8CF" opacity="1.000000" stroke="none" 
	d="
M90.006027,69.443016 
	C89.341293,69.567711 88.244026,69.620842 87.060684,69.348534 
	C87.840897,69.139221 88.707191,69.255333 90.006027,69.443016 
z"/>
<path fill="#A2B8CF" opacity="1.000000" stroke="none" 
	d="
M43.938145,55.243050 
	C43.746635,55.873718 43.219509,56.454815 42.387054,57.065575 
	C42.588665,56.461323 43.095596,55.827400 43.938145,55.243050 
z"/>
<path fill="#A2B8CF" opacity="1.000000" stroke="none" 
	d="
M66.112213,53.399757 
	C65.571022,53.625797 64.969788,53.591953 64.183029,53.302925 
	C64.682396,53.078453 65.367287,53.109161 66.112213,53.399757 
z"/>
<path fill="#A2B8CF" opacity="1.000000" stroke="none" 
	d="
M50.840714,52.747421 
	C50.485054,53.263779 49.973675,53.574554 49.156609,53.804840 
	C49.462276,53.330185 50.073635,52.936012 50.840714,52.747421 
z"/>
<path fill="#F8FAFC" opacity="1.000000" stroke="none" 
	d="
M55.182457,155.466248 
	C57.047611,154.375107 58.879658,153.199921 60.715042,153.194687 
	C98.192184,153.087646 135.669724,153.095474 173.147141,153.127609 
	C182.465469,153.135590 181.375992,152.874542 183.239517,145.657684 
	C185.384659,137.350342 188.691650,129.545029 195.233963,123.594719 
	C196.780243,122.188370 198.579163,121.059807 201.154205,119.137215 
	C201.154205,160.862106 201.154205,201.454544 201.154205,242.606339 
	C199.500748,242.606339 197.874374,242.606323 196.247986,242.606323 
	C151.108490,242.606323 105.968712,242.536118 60.829899,242.712387 
	C56.194824,242.730484 54.997021,241.451340 55.033798,236.877487 
	C55.250751,209.895432 55.146805,182.910782 55.182457,155.466248 
M168.549026,224.587875 
	C168.456131,224.053436 168.363220,223.519012 168.521881,222.331665 
	C168.373840,221.212662 168.225815,220.093674 168.218033,218.106903 
	C167.456512,216.959473 166.694992,215.812027 166.024155,214.110779 
	C165.989822,213.563095 165.955490,213.015411 166.886810,212.809326 
	C167.270462,212.324997 167.985626,211.842651 167.988525,211.356049 
	C168.040604,202.624771 168.044586,193.892380 167.904770,185.162689 
	C167.895508,184.584610 166.650970,184.026291 166.149536,182.819534 
	C166.093048,181.726364 166.036560,180.633179 166.945435,179.866394 
	C168.985413,173.958954 168.729782,168.326752 165.003021,162.078186 
	C161.096115,167.732925 160.167801,173.264359 159.424408,179.415802 
	C159.278015,180.942764 159.131607,182.469711 159.018692,184.914795 
	C159.173767,188.989975 159.328827,193.065140 159.807495,197.773682 
	C160.198013,198.030411 160.588531,198.287155 161.038071,198.786179 
	C161.038071,198.786179 161.456345,199.020447 161.561081,199.922989 
	C161.423172,208.277283 161.285278,216.631561 161.072708,225.713425 
	C162.375397,226.858154 163.678085,228.002884 165.718170,229.098587 
	C166.549011,227.746399 167.379868,226.394226 168.549026,224.587875 
M92.021332,170.260574 
	C91.371162,167.636307 90.606354,165.147995 86.176674,165.886826 
	C80.347000,164.926071 80.167503,169.525406 78.979942,173.168991 
	C76.856606,179.683670 82.258247,183.899536 83.881668,190.108337 
	C83.919388,191.797791 83.957100,193.487259 83.210114,195.477570 
	C82.669914,206.167389 82.129723,216.857224 81.589531,227.547043 
	C82.432701,227.806473 83.275879,228.065903 84.119049,228.325333 
	C85.715614,225.893570 87.312187,223.461807 89.109001,220.107605 
	C89.065056,214.407150 89.021103,208.706680 89.136604,202.080368 
	C89.928734,195.018631 86.520630,187.299225 93.118004,180.757751 
	C92.888649,177.470444 92.659294,174.183121 92.180786,170.917892 
	C92.180786,170.917892 91.952232,171.019531 92.021332,170.260574 
M97.376175,181.410370 
	C97.244911,182.266830 97.113655,183.123291 96.998169,183.998550 
	C96.998169,183.998550 96.975037,183.991104 96.223373,183.954727 
	C91.022408,193.342209 92.213257,202.790848 96.073799,212.933731 
	C98.020660,215.290039 99.967514,217.646347 102.295937,220.564163 
	C103.588745,221.597260 104.852882,222.668823 106.178909,223.657364 
	C116.839363,231.604736 130.975601,231.827423 141.610718,223.503677 
	C141.415726,223.337311 141.220718,223.170929 140.992599,222.991776 
	C140.992599,222.991776 140.983795,223.026154 141.567535,223.635071 
	C151.080109,219.626068 153.545776,210.992661 155.968018,201.363342 
	C157.197540,189.066574 153.022186,179.134827 142.862167,171.100739 
	C139.125244,169.461792 135.388336,167.822845 130.776871,166.168182 
	C124.869019,166.882767 118.961166,167.597351 112.319389,168.163712 
	C105.778748,170.475204 101.115761,174.900696 97.376175,181.410370 
z"/>
<path fill="#F9FBFC" opacity="1.000000" stroke="none" 
	d="
M37.042259,131.064056 
	C38.724392,129.186264 40.161907,127.564987 41.668591,126.010757 
	C48.413952,119.052452 55.938835,115.652977 66.332062,115.832291 
	C106.309525,116.522003 146.305969,116.111847 186.295334,116.111855 
	C188.218781,116.111855 190.142227,116.111855 191.613464,116.111855 
	C187.554825,123.274467 183.108353,129.828537 179.977554,136.960190 
	C175.653473,146.810043 176.078262,146.996506 165.322357,146.996506 
	C121.334053,146.996506 77.345757,146.996521 33.357452,146.996506 
	C31.378986,146.996506 29.400520,146.996490 25.549475,146.996490 
	C29.822134,141.070435 33.325809,136.210938 37.042259,131.064056 
z"/>
<path fill="#FBFCFD" opacity="1.000000" stroke="none" 
	d="
M141.999878,110.375107 
	C114.409676,110.375214 87.319489,110.375214 60.229301,110.375214 
	C60.049454,110.004425 59.869610,109.633629 59.689762,109.262840 
	C64.979576,104.395309 70.259605,99.517075 75.565536,94.667175 
	C77.040138,93.319313 78.878578,92.273384 80.060204,90.717003 
	C86.798637,81.841476 95.767113,80.461296 106.417046,80.608032 
	C146.725662,81.163376 187.046494,80.831482 227.362762,80.831528 
	C229.129837,80.831528 230.896896,80.831520 234.264267,80.831520 
	C231.197464,83.763893 229.281982,85.677055 227.278946,87.493683 
	C223.084595,91.297714 218.283813,94.591484 214.736221,98.918129 
	C206.714996,108.700890 196.845505,111.517532 184.464920,110.609703 
	C170.545685,109.589066 156.493958,110.374985 141.999878,110.375107 
z"/>
<path fill="#FAFBFC" opacity="1.000000" stroke="none" 
	d="
M246.569199,57.536995 
	C244.587936,62.141319 242.217529,66.294296 241.181366,70.757057 
	C240.319931,74.467308 238.651382,75.085220 235.368240,75.058449 
	C219.872299,74.932076 204.374756,75.002235 188.877792,75.002243 
	C159.550186,75.002266 130.222595,75.002228 100.894989,75.002220 
	C99.080574,75.002220 97.266151,75.002228 95.403816,75.002228 
	C97.426796,62.123131 110.697067,49.823284 122.659203,49.827923 
	C164.317642,49.844086 205.976044,49.979446 247.634445,50.080299 
	C248.729691,50.082951 249.824661,50.209602 251.639755,50.323673 
	C249.729675,53.021740 248.243698,55.120754 246.569199,57.536995 
z"/>
<path fill="#F9FAFC" opacity="1.000000" stroke="none" 
	d="
M223.332886,224.333466 
	C218.404327,229.182022 213.729401,233.784195 208.141754,239.284882 
	C208.141754,199.314911 208.141754,160.814926 208.141754,121.251648 
	C210.032166,122.700691 211.795547,123.443260 212.592407,124.767464 
	C216.252319,130.849487 219.987106,136.930756 223.017197,143.333099 
	C225.341980,148.245178 226.689484,148.896530 230.801544,145.109833 
	C233.127014,142.968369 235.402145,140.772263 237.724930,138.627838 
	C237.937271,138.431808 238.331985,138.433289 239.378799,138.128571 
	C239.539734,139.754410 239.813904,141.245682 239.815948,142.737305 
	C239.844147,163.227905 239.918243,183.719421 239.711914,204.207993 
	C239.690125,206.372498 238.432739,208.939926 236.942917,210.595337 
	C232.714417,215.293854 228.068237,219.616470 223.332886,224.333466 
z"/>
<path fill="#F7F9FB" opacity="1.000000" stroke="none" 
	d="
M58.264656,102.361557 
	C56.420822,104.029366 54.841564,105.447693 52.848850,107.237350 
	C44.142303,95.546288 33.126427,88.497704 17.749697,88.022026 
	C19.049353,86.490257 19.741386,85.464668 20.631847,84.658157 
	C28.165443,77.834839 35.948643,71.271179 43.234219,64.194420 
	C50.533592,57.104252 58.437794,56.830708 67.069756,60.827724 
	C74.665474,64.344910 80.561562,69.842773 85.720398,77.503799 
	C76.678055,85.687210 67.603645,93.899651 58.264656,102.361557 
z"/>
<path fill="#F8FAFB" opacity="1.000000" stroke="none" 
	d="
M233.140121,91.137939 
	C235.672318,88.696457 238.137924,86.661346 240.183029,84.267059 
	C242.926239,81.055473 245.774155,81.305054 249.012451,83.224098 
	C256.605377,87.723732 259.931976,95.045914 261.992493,103.102951 
	C262.290771,104.269341 261.681244,106.145378 260.819427,107.058197 
	C250.445877,118.045715 239.945618,128.913620 229.367920,139.927795 
	C225.871902,134.147873 223.532745,129.511276 220.463150,125.423096 
	C217.425079,121.376854 213.649948,117.884010 211.143311,115.171310 
	C218.332169,107.306641 225.609207,99.345490 233.140121,91.137939 
z"/>
<path fill="#FDF0E2" opacity="1.000000" stroke="none" 
	d="
M397.373657,218.607025 
	C395.725891,219.583420 394.054138,220.719986 392.566345,220.515823 
	C391.819611,220.413345 390.666840,217.629868 391.036255,216.494278 
	C391.475159,215.145050 393.264954,213.481094 394.624084,213.328094 
	C398.555206,212.885605 397.117218,216.182251 397.373657,218.607025 
z"/>
<path fill="#FCE8D2" opacity="1.000000" stroke="none" 
	d="
M357.022888,204.342560 
	C357.227875,208.201538 354.826843,208.387527 352.445343,208.059967 
	C351.405182,207.916885 349.580109,206.579361 349.679077,206.235489 
	C350.136688,204.645966 350.981659,202.133698 351.994965,201.980255 
	C353.523712,201.748764 355.307800,203.203751 357.022888,204.342560 
z"/>
<path fill="#F3F6F9" opacity="1.000000" stroke="none" 
	d="
M131.651428,166.183899 
	C135.388336,167.822845 139.125244,169.461792 142.589630,171.482788 
	C141.684250,171.938034 141.051407,172.011215 139.350311,172.207932 
	C150.316544,179.782791 154.576599,189.753952 153.439728,202.433868 
	C150.732864,207.887558 148.307419,213.037262 145.515900,217.980225 
	C144.430405,219.902344 142.518997,221.358017 140.983795,223.026154 
	C140.983795,223.026154 140.992599,222.991776 140.750809,222.865845 
	C140.323990,222.796509 140.138962,222.853134 139.586288,222.956757 
	C127.406898,229.100143 116.254982,227.956329 105.589302,220.136078 
	C104.771400,219.536407 103.158012,220.021683 101.914368,220.002655 
	C99.967514,217.646347 98.020660,215.290039 96.420036,212.429291 
	C96.890930,210.801987 97.378952,209.571167 97.082504,208.573425 
	C94.804390,200.906235 94.911407,193.326859 97.429207,185.742966 
	C97.588806,185.262253 97.140526,184.579742 96.975037,183.991104 
	C96.975037,183.991104 96.998169,183.998550 97.348114,184.142944 
	C98.342041,183.231232 98.986023,182.175125 99.918938,181.004074 
	C104.801003,177.243988 109.394142,173.598846 114.394211,169.962097 
	C121.485603,169.558517 128.170059,169.146561 134.745956,168.741302 
	C133.784363,167.946625 132.717896,167.065262 131.651428,166.183899 
M104.264618,191.106216 
	C101.863876,197.137955 102.158157,202.893539 106.248070,208.791534 
	C108.824112,211.194702 109.327911,215.821304 114.210892,216.716629 
	C122.457100,221.248367 132.486359,220.166153 138.221252,213.554077 
	C141.047745,210.514709 145.305695,208.584427 145.905228,202.970169 
	C147.430664,194.753464 145.792984,187.524612 138.913864,181.229126 
	C129.283447,173.520020 117.884903,173.801849 109.145340,182.074463 
	C107.777626,184.996643 106.409912,187.918823 104.264618,191.106216 
z"/>
<path fill="#E1E8F0" opacity="1.000000" stroke="none" 
	d="
M158.985214,183.996674 
	C159.131607,182.469711 159.278015,180.942764 160.066315,179.217987 
	C161.963547,175.582169 163.218887,172.144150 164.474228,168.706116 
	C164.741638,168.726730 165.009033,168.747345 165.276428,168.767960 
	C165.510971,172.358643 165.745529,175.949326 165.980072,179.540009 
	C166.036560,180.633179 166.093048,181.726364 166.049347,183.644440 
	C165.808289,190.322403 165.667419,196.175476 165.327606,202.035416 
	C164.863052,202.042007 164.597565,202.036560 164.285995,201.573471 
	C163.311981,200.420807 162.384171,199.720627 161.456345,199.020447 
	C161.456345,199.020447 161.038071,198.786179 161.322250,198.318542 
	C161.553848,197.543808 161.501266,197.236710 161.408951,196.472595 
	C161.279541,193.231964 161.394760,190.419632 161.010391,187.677307 
	C160.828735,186.381256 159.690186,185.219360 158.985214,183.996674 
z"/>
<path fill="#658AB0" opacity="1.000000" stroke="none" 
	d="
M83.857178,189.275116 
	C82.258247,183.899536 76.856606,179.683670 78.979942,173.168991 
	C80.167503,169.525406 80.347000,164.926071 86.590225,166.323822 
	C88.653252,168.180389 90.302742,169.599960 91.952232,171.019531 
	C91.952232,171.019531 92.180786,170.917892 92.129066,171.191345 
	C90.901215,173.209976 89.725082,174.955170 88.326050,176.718674 
	C87.811920,176.809341 87.517105,176.861526 87.196655,176.548035 
	C86.025070,175.817368 84.875557,175.432251 83.114601,174.842285 
	C83.053719,174.471573 82.841225,173.177795 82.628731,171.884003 
	C82.362015,171.887589 82.095299,171.891159 81.828583,171.894745 
	C81.722656,173.589569 81.616730,175.284378 81.518677,177.360565 
	C82.420341,179.452393 83.314133,181.162857 84.269577,183.252625 
	C84.173210,185.513000 84.015198,187.394058 83.857178,189.275116 
z"/>
<path fill="#7596B8" opacity="1.000000" stroke="none" 
	d="
M102.105156,220.283401 
	C103.158012,220.021683 104.771400,219.536407 105.589302,220.136078 
	C116.254982,227.956329 127.406898,229.100143 139.747910,223.242981 
	C140.637207,223.731369 140.997253,223.980530 141.357300,224.229706 
	C130.975601,231.827423 116.839363,231.604736 106.178909,223.657364 
	C104.852882,222.668823 103.588745,221.597260 102.105156,220.283401 
z"/>
<path fill="#2E6093" opacity="1.000000" stroke="none" 
	d="
M88.908752,221.030029 
	C87.312187,223.461807 85.715614,225.893570 84.119049,228.325333 
	C83.275879,228.065903 82.432701,227.806473 81.589531,227.547043 
	C82.129723,216.857224 82.669914,206.167389 83.733276,195.711304 
	C84.507721,202.877991 84.661903,209.816956 85.089867,216.738983 
	C85.178474,218.172287 86.284508,219.542679 87.251892,220.977982 
	C88.024345,221.019272 88.466553,221.024643 88.908752,221.030029 
z"/>
<path fill="#B7C9DA" opacity="1.000000" stroke="none" 
	d="
M86.921631,220.942062 
	C86.284508,219.542679 85.178474,218.172287 85.089867,216.738983 
	C84.661903,209.816956 84.507721,202.877991 84.125633,195.560883 
	C83.957100,193.487259 83.919388,191.797791 83.869423,189.691727 
	C84.015198,187.394058 84.173210,185.513000 84.623825,183.300339 
	C85.632042,183.003098 86.347679,183.037445 87.085320,183.486420 
	C87.081635,190.272263 87.055931,196.643463 86.997208,203.480377 
	C86.950005,209.611420 86.935822,215.276749 86.921631,220.942062 
z"/>
<path fill="#7193B6" opacity="1.000000" stroke="none" 
	d="
M153.574875,202.047256 
	C154.576599,189.753952 150.316544,179.782791 139.350311,172.207932 
	C141.051407,172.011215 141.684250,171.938034 142.664856,171.810410 
	C153.022186,179.134827 157.197540,189.066574 155.469315,201.718964 
	C154.505371,202.065460 154.040115,202.056351 153.574875,202.047256 
z"/>
<path fill="#5F85AD" opacity="1.000000" stroke="none" 
	d="
M161.508713,199.471710 
	C162.384171,199.720627 163.311981,200.420807 164.161392,202.025925 
	C164.082977,209.137802 164.082977,215.344727 164.082977,221.551666 
	C164.530624,221.567459 164.978271,221.583267 165.425903,221.599060 
	C165.715134,220.731552 166.004364,219.864059 166.590912,218.995026 
	C167.284729,218.987228 167.681259,218.980942 168.077774,218.974670 
	C168.225815,220.093674 168.373840,221.212662 168.159576,222.756042 
	C167.531113,223.787277 167.264938,224.394119 166.999390,225.000488 
	C167.000000,225.000000 167.001221,224.999161 166.661118,224.995148 
	C164.596466,224.989395 162.871918,224.987625 161.147369,224.985855 
	C161.285278,216.631561 161.423172,208.277283 161.508713,199.471710 
z"/>
<path fill="#5B82AB" opacity="1.000000" stroke="none" 
	d="
M166.462753,179.703201 
	C165.745529,175.949326 165.510971,172.358643 165.276428,168.767960 
	C165.009033,168.747345 164.741638,168.726730 164.474228,168.706116 
	C163.218887,172.144150 161.963547,175.582169 160.320587,179.017151 
	C160.167801,173.264359 161.096115,167.732925 165.003021,162.078186 
	C168.729782,168.326752 168.985413,173.958954 166.462753,179.703201 
z"/>
<path fill="#5F85AD" opacity="1.000000" stroke="none" 
	d="
M96.599213,183.972916 
	C97.140526,184.579742 97.588806,185.262253 97.429207,185.742966 
	C94.911407,193.326859 94.804390,200.906235 97.082504,208.573425 
	C97.378952,209.571167 96.890930,210.801987 96.359406,212.094360 
	C92.213257,202.790848 91.022408,193.342209 96.599213,183.972916 
z"/>
<path fill="#7798B9" opacity="1.000000" stroke="none" 
	d="
M131.214142,166.176041 
	C132.717896,167.065262 133.784363,167.946625 134.745956,168.741302 
	C128.170059,169.146561 121.485603,169.558517 114.305138,169.742523 
	C113.557190,169.113693 113.305252,168.712814 113.053314,168.311935 
	C118.961166,167.597351 124.869019,166.882767 131.214142,166.176041 
z"/>
<path fill="#5F85AD" opacity="1.000000" stroke="none" 
	d="
M153.439728,202.433868 
	C154.040115,202.056351 154.505371,202.065460 155.322556,202.106354 
	C153.545776,210.992661 151.080109,219.626068 141.275665,223.330612 
	C142.518997,221.358017 144.430405,219.902344 145.515900,217.980225 
	C148.307419,213.037262 150.732864,207.887558 153.439728,202.433868 
z"/>
<path fill="#5B82AB" opacity="1.000000" stroke="none" 
	d="
M165.526566,202.028549 
	C165.667419,196.175476 165.808289,190.322403 165.965073,183.964050 
	C166.650970,184.026291 167.895508,184.584610 167.904770,185.162689 
	C168.044586,193.892380 168.040604,202.624771 167.988525,211.356049 
	C167.985626,211.842651 167.270462,212.324997 166.452423,212.201843 
	C165.854218,208.405762 165.690384,205.217148 165.526566,202.028549 
z"/>
<path fill="#7193B6" opacity="1.000000" stroke="none" 
	d="
M112.686356,168.237823 
	C113.305252,168.712814 113.557190,169.113693 113.898193,169.734131 
	C109.394142,173.598846 104.801003,177.243988 99.487427,180.966049 
	C98.480537,181.016708 98.194099,180.990463 97.907654,180.964203 
	C101.115761,174.900696 105.778748,170.475204 112.686356,168.237823 
z"/>
<path fill="#EEF2F6" opacity="1.000000" stroke="none" 
	d="
M165.327606,202.035416 
	C165.690384,205.217148 165.854218,208.405762 165.969604,212.031036 
	C165.955490,213.015411 165.989822,213.563095 166.037506,214.825104 
	C166.131760,216.691818 166.212677,217.844177 166.293579,218.996552 
	C166.004364,219.864059 165.715134,220.731552 165.425903,221.599060 
	C164.978271,221.583267 164.530624,221.567459 164.082977,221.551666 
	C164.082977,215.344727 164.082977,209.137802 164.207581,202.478409 
	C164.597565,202.036560 164.863052,202.042007 165.327606,202.035416 
z"/>
<path fill="#7798B9" opacity="1.000000" stroke="none" 
	d="
M87.030228,203.014679 
	C87.055931,196.643463 87.081635,190.272263 87.347565,183.303558 
	C88.709351,181.702057 89.830894,180.698044 91.278786,179.815948 
	C91.880508,180.304871 92.155876,180.671890 92.431244,181.038925 
	C86.520630,187.299225 89.928734,195.018631 88.732292,202.536072 
	C87.895393,202.999405 87.462814,203.007034 87.030228,203.014679 
z"/>
<path fill="#5B82AB" opacity="1.000000" stroke="none" 
	d="
M86.997208,203.480392 
	C87.462814,203.007034 87.895393,202.999405 88.652565,202.998993 
	C89.021103,208.706680 89.065056,214.407150 89.008881,220.568817 
	C88.466553,221.024643 88.024345,221.019272 87.251892,220.977982 
	C86.935822,215.276749 86.950005,209.611420 86.997208,203.480392 
z"/>
<path fill="#E6ECF2" opacity="1.000000" stroke="none" 
	d="
M92.774628,180.898346 
	C92.155876,180.671890 91.880508,180.304871 91.273132,179.454910 
	C90.143730,178.214767 89.346329,177.457565 88.548943,176.700348 
	C89.725082,174.955170 90.901215,173.209976 92.253647,171.180298 
	C92.659294,174.183121 92.888649,177.470444 92.774628,180.898346 
z"/>
<path fill="#698DB2" opacity="1.000000" stroke="none" 
	d="
M159.001953,184.455734 
	C159.690186,185.219360 160.828735,186.381256 161.010391,187.677307 
	C161.394760,190.419632 161.279541,193.231964 160.914642,196.513000 
	C160.134674,197.053711 159.809296,197.097015 159.483902,197.140320 
	C159.328827,193.065140 159.173767,188.989975 159.001953,184.455734 
z"/>
<path fill="#5F85AD" opacity="1.000000" stroke="none" 
	d="
M91.986786,170.640045 
	C90.302742,169.599960 88.653252,168.180389 87.002655,166.394119 
	C90.606354,165.147995 91.371162,167.636307 91.986786,170.640045 
z"/>
<path fill="#698DB2" opacity="1.000000" stroke="none" 
	d="
M161.110046,225.349640 
	C162.871918,224.987625 164.596466,224.989395 166.463013,225.278595 
	C166.063583,226.759903 165.522171,227.953751 164.980774,229.147614 
	C163.678085,228.002884 162.375397,226.858154 161.110046,225.349640 
z"/>
<path fill="#5F85AD" opacity="1.000000" stroke="none" 
	d="
M165.349457,229.123108 
	C165.522171,227.953751 166.063583,226.759903 166.803101,225.282608 
	C167.001221,224.999161 167.000000,225.000000 167.302429,225.009705 
	C167.806808,225.026978 168.008774,225.034515 168.210724,225.042053 
	C167.379868,226.394226 166.549011,227.746399 165.349457,229.123108 
z"/>
<path fill="#5B82AB" opacity="1.000000" stroke="none" 
	d="
M166.590897,218.995026 
	C166.212677,217.844177 166.131760,216.691818 165.992157,215.102020 
	C166.694992,215.812027 167.456512,216.959473 168.147903,218.540771 
	C167.681259,218.980942 167.284729,218.987228 166.590897,218.995026 
z"/>
<path fill="#5F85AD" opacity="1.000000" stroke="none" 
	d="
M97.641914,181.187286 
	C98.194099,180.990463 98.480537,181.016708 99.198486,181.080994 
	C98.986023,182.175125 98.342041,183.231232 97.340233,184.133545 
	C97.113655,183.123291 97.244911,182.266830 97.641914,181.187286 
z"/>
<path fill="#698DB2" opacity="1.000000" stroke="none" 
	d="
M168.379883,224.814972 
	C168.008774,225.034515 167.806808,225.026978 167.301819,225.010193 
	C167.264938,224.394119 167.531113,223.787277 168.033798,223.082489 
	C168.363220,223.519012 168.456131,224.053436 168.379883,224.814972 
z"/>
<path fill="#5F85AD" opacity="1.000000" stroke="none" 
	d="
M141.484009,223.866699 
	C140.997253,223.980530 140.637207,223.731369 140.115540,223.195984 
	C140.138962,222.853134 140.323990,222.796509 140.767365,222.872223 
	C141.220718,223.170929 141.415726,223.337311 141.484009,223.866699 
z"/>
<path fill="#5F85AD" opacity="1.000000" stroke="none" 
	d="
M159.645691,197.457001 
	C159.809296,197.097015 160.134674,197.053711 160.954376,196.970016 
	C161.501266,197.236710 161.553848,197.543808 161.292740,198.197388 
	C160.588531,198.287155 160.198013,198.030411 159.645691,197.457001 
z"/>
<path fill="#CED9E6" opacity="1.000000" stroke="none" 
	d="
M113.979637,215.997330 
	C109.327911,215.821304 108.824112,211.194702 106.205200,208.088684 
	C106.630753,205.223129 107.099167,203.060440 107.835861,200.987167 
	C108.403915,201.728607 108.703690,202.380615 108.988464,203.400940 
	C112.505920,214.390152 126.710281,218.612427 134.825089,211.373215 
	C135.282822,210.964890 134.905975,209.621048 134.998047,208.386490 
	C136.318466,206.354095 137.558380,204.647827 139.031982,203.176056 
	C140.554581,202.451935 141.843475,201.493317 143.152222,200.889435 
	C144.053619,202.079788 144.935150,202.915405 145.816696,203.751007 
	C145.305695,208.584427 141.047745,210.514709 137.670227,213.827362 
	C131.513672,214.999329 125.926338,216.052765 120.293030,216.715088 
	C118.245003,216.955856 116.087296,216.263779 113.979637,215.997330 
z"/>
<path fill="#7596B8" opacity="1.000000" stroke="none" 
	d="
M109.840591,181.947937 
	C117.884903,173.801849 129.283447,173.520020 138.584076,181.622589 
	C137.909515,182.096664 137.564728,182.177292 136.930527,182.148193 
	C132.129318,180.748367 127.649818,178.633942 123.094490,178.455551 
	C120.012901,178.334869 115.300644,178.076065 114.033844,183.011154 
	C114.026848,183.028198 113.991730,183.039352 113.699684,182.838409 
	C112.947121,182.710663 112.486595,182.783844 111.711349,182.879120 
	C110.877945,182.583435 110.359268,182.265686 109.840591,181.947937 
z"/>
<path fill="#5B82AB" opacity="1.000000" stroke="none" 
	d="
M137.219940,182.257935 
	C137.564728,182.177292 137.909515,182.096664 138.776047,181.914398 
	C145.792984,187.524612 147.430664,194.753464 145.860962,203.360596 
	C144.935150,202.915405 144.053619,202.079788 143.111237,200.500015 
	C143.021652,197.811508 142.992920,195.867142 143.002731,193.538651 
	C141.100830,189.522308 139.160385,185.890121 137.219940,182.257935 
z"/>
<path fill="#4D78A4" opacity="1.000000" stroke="none" 
	d="
M107.567581,200.897751 
	C107.099167,203.060440 106.630753,205.223129 106.093567,207.834427 
	C102.158157,202.893539 101.863876,197.137955 104.613205,191.007202 
	C104.961792,190.908173 104.982025,191.009949 105.013840,191.356171 
	C105.797806,192.474396 106.549965,193.246414 107.340637,194.448334 
	C107.441956,196.884735 107.504768,198.891251 107.567581,200.897751 
z"/>
<path fill="#698DB2" opacity="1.000000" stroke="none" 
	d="
M114.095261,216.356979 
	C116.087296,216.263779 118.245003,216.955856 120.293030,216.715088 
	C125.926338,216.052765 131.513672,214.999329 137.494110,214.132202 
	C132.486359,220.166153 122.457100,221.248367 114.095261,216.356979 
z"/>
<path fill="#CBD7E4" opacity="1.000000" stroke="none" 
	d="
M109.492966,182.011200 
	C110.359268,182.265686 110.877945,182.583435 111.619843,183.145142 
	C111.888741,184.245346 111.934395,185.101608 111.844330,186.220551 
	C111.160004,187.045609 110.611404,187.608002 110.010345,187.845642 
	C109.292145,187.595337 108.421158,187.430222 108.000450,187.790665 
	C106.890022,188.742035 105.974907,189.921371 104.982025,191.009949 
	C104.982025,191.009949 104.961792,190.908173 105.001999,190.874573 
	C106.409912,187.918823 107.777626,184.996643 109.492966,182.011200 
z"/>
<path fill="#F8FAFC" opacity="1.000000" stroke="none" 
	d="
M88.326050,176.718674 
	C89.346329,177.457565 90.143730,178.214767 90.946777,179.333008 
	C89.830894,180.698044 88.709351,181.702057 87.325562,182.888931 
	C86.347679,183.037445 85.632042,183.003098 84.562164,182.921021 
	C83.314133,181.162857 82.420341,179.452393 81.888039,177.457794 
	C83.905930,177.080292 85.562332,176.986938 87.218727,176.893585 
	C87.517105,176.861526 87.811920,176.809341 88.326050,176.718674 
z"/>
<path fill="#E6ECF2" opacity="1.000000" stroke="none" 
	d="
M87.196655,176.548035 
	C85.562332,176.986938 83.905930,177.080292 81.880173,177.076416 
	C81.616730,175.284378 81.722656,173.589569 81.828583,171.894745 
	C82.095299,171.891159 82.362015,171.887589 82.628731,171.884003 
	C82.841225,173.177795 83.053719,174.471573 83.114601,174.842285 
	C84.875557,175.432251 86.025070,175.817368 87.196655,176.548035 
z"/>
<path fill="#FAFCFD" opacity="1.000000" stroke="none" 
	d="
M107.835861,200.987167 
	C107.504768,198.891251 107.441956,196.884735 107.387405,194.505692 
	C107.395676,194.133148 107.544846,194.152283 107.794106,194.344818 
	C109.375969,192.975601 110.867462,191.521637 112.013145,189.833038 
	C116.523346,183.185516 125.290367,181.213943 132.163956,185.224701 
	C139.265182,189.368301 139.918839,195.790070 138.798279,202.941559 
	C137.558380,204.647827 136.318466,206.354095 134.637848,208.497803 
	C124.408768,214.299423 118.809578,213.146515 111.450417,204.364380 
	C110.895409,203.702057 109.831055,203.466553 109.003464,203.032654 
	C108.703690,202.380615 108.403915,201.728607 107.835861,200.987167 
z"/>
<path fill="#6A8EB2" opacity="1.000000" stroke="none" 
	d="
M139.031982,203.176056 
	C139.918839,195.790070 139.265182,189.368301 132.163956,185.224701 
	C125.290367,181.213943 116.523346,183.185516 112.013145,189.833038 
	C110.867462,191.521637 109.375969,192.975601 107.999214,194.024933 
	C108.657639,191.731796 109.360214,189.951080 110.062790,188.170380 
	C110.611404,187.608002 111.160004,187.045609 112.109314,186.058807 
	C113.003929,184.769379 113.497826,183.904373 113.991730,183.039352 
	C113.991730,183.039352 114.026848,183.028198 114.414589,183.066803 
	C125.568695,177.681625 135.471497,181.015915 140.789368,191.773911 
	C141.216263,192.637543 142.225555,193.213272 142.964203,193.922791 
	C142.992920,195.867142 143.021652,197.811508 143.091370,200.145279 
	C141.843475,201.493317 140.554581,202.451935 139.031982,203.176056 
z"/>
<path fill="#7596B8" opacity="1.000000" stroke="none" 
	d="
M108.988464,203.400940 
	C109.831055,203.466553 110.895409,203.702057 111.450417,204.364380 
	C118.809578,213.146515 124.408768,214.299423 134.557343,208.823929 
	C134.905975,209.621048 135.282822,210.964890 134.825089,211.373215 
	C126.710281,218.612427 112.505920,214.390152 108.988464,203.400940 
z"/>
<path fill="#CED9E6" opacity="1.000000" stroke="none" 
	d="
M143.002731,193.538651 
	C142.225555,193.213272 141.216263,192.637543 140.789368,191.773911 
	C135.471497,181.015915 125.568695,177.681625 114.421585,183.049744 
	C115.300644,178.076065 120.012901,178.334869 123.094490,178.455551 
	C127.649818,178.633942 132.129318,180.748367 136.930527,182.148193 
	C139.160385,185.890121 141.100830,189.522308 143.002731,193.538651 
z"/>
<path fill="#CED9E6" opacity="1.000000" stroke="none" 
	d="
M113.699684,182.838409 
	C113.497826,183.904373 113.003929,184.769379 112.245041,185.796143 
	C111.934395,185.101608 111.888741,184.245346 111.934578,183.123047 
	C112.486595,182.783844 112.947121,182.710663 113.699684,182.838409 
z"/>
<path fill="#CED9E6" opacity="1.000000" stroke="none" 
	d="
M110.010330,187.845642 
	C109.360214,189.951080 108.657639,191.731796 107.749954,193.832397 
	C107.544846,194.152283 107.395676,194.133148 107.348900,194.075790 
	C106.549965,193.246414 105.797806,192.474396 105.013840,191.356171 
	C105.974907,189.921371 106.890022,188.742035 108.000450,187.790665 
	C108.421158,187.430222 109.292145,187.595337 110.010330,187.845642 
z"/>
</svg>