<svg xmlns="http://www.w3.org/2000/svg" xmlns:xlink="http://www.w3.org/1999/xlink" version="1.1" width="175" height="35" viewBox="0 0 1000 1000" xml:space="preserve">
<desc>Created with Fabric.js 3.5.0</desc>
<defs>
</defs>
<rect x="0" y="0" width="100%" height="100%" fill="#ffffff"/>
<g transform="matrix(0.6617 0 0 0.6617 500.0143 500.0061)" id="22755">
<g style="" vector-effect="non-scaling-stroke">
		<g transform="matrix(1 0 0 1 0.9376 1.0457)" id="Layer_1">
<path style="stroke: none; stroke-width: 1; stroke-dasharray: none; stroke-linecap: butt; stroke-dashoffset: 0; stroke-linejoin: miter; stroke-miterlimit: 4; is-custom-font: none; font-file-url: none; fill: rgb(254,254,254); fill-rule: nonzero; opacity: 1;" transform=" translate(-311.9376, -134.0458)" d="M 386 267 C 257.369385 267 129.238785 267 1.054086 267 C 1.054086 178.394363 1.054086 89.788689 1.054086 1.091504 C 208.213974 1.091504 415.428009 1.091504 622.821045 1.091504 C 622.821045 89.666382 622.821045 178.33316 622.821045 267 C 544.122009 267 465.311005 267 386 267 M 41.648972 57.602219 C 30.502434 67.629631 19.305578 77.602432 8.279673 87.760773 C 7.046069 88.897316 6.782253 91.086472 6.068707 92.787476 C 7.708378 93.225502 9.323972 93.870056 10.992038 94.064529 C 17.055027 94.7714 23.414606 94.411743 29.143564 96.157104 C 37.558525 98.720772 44.1077 104.33989 48.436981 112.472076 C 46.775375 113.841026 45.487774 114.878525 44.225246 115.945671 C 33.955181 124.62648 24.741695 134.129669 19.858183 147.040817 C 18.084713 151.729553 18.914625 153.175293 23.854197 153.246216 C 30.352303 153.339539 36.865696 153.520065 43.347649 153.183762 C 47.710987 152.957382 49.029976 154.296738 48.997623 158.76355 C 48.796059 186.593002 48.949295 214.42485 48.846085 242.255386 C 48.828705 246.940796 50.617176 248.804703 55.355305 248.796143 C 104.017593 248.708313 152.68013 248.717789 201.342484 248.787994 C 205.257965 248.79364 208.254105 247.685318 211.067154 244.816574 C 221.100388 234.584641 231.244217 224.451981 241.633377 214.584122 C 244.574936 211.790176 245.781143 209.01413 245.75856 205.043228 C 245.625931 181.712662 245.602844 158.380112 245.82518 135.050919 C 245.848969 132.555115 247.110031 129.53746 248.807129 127.689369 C 254.322708 121.683052 260.462799 116.251534 266.006989 110.269257 C 267.463379 108.6978 268.816162 105.49482 268.185028 103.79567 C 265.728729 97.182678 263.236664 90.322594 259.22702 84.633408 C 256.280334 80.452415 250.948608 77.952377 246.289825 74.406448 C 248.902298 64.773239 252.678177 55.417637 263.159546 50.484116 C 264.620972 49.796234 265.448547 47.761852 266.56955 46.350784 C 264.770874 45.502129 262.975372 43.919777 261.173065 43.91201 C 214.844391 43.712322 168.514999 43.677639 122.185745 43.612255 C 114.454666 43.601345 107.538902 46.02409 102.63028 52.010143 C 98.135445 57.491585 94.469666 63.65287 89.573479 69.371452 C 88.707191 69.255333 87.840897 69.139221 86.469063 68.589989 C 80.983566 61.872993 74.038483 57.140205 66.05217 53.139874 C 65.367287 53.109161 64.682396 53.078453 63.377972 52.968128 C 62.9725 52.874039 62.567032 52.779953 61.828053 52.025665 C 58.819077 52.211502 55.810104 52.397339 52.209351 52.751007 C 51.805046 52.81834 51.400738 52.885674 50.68499 52.54184 C 50.073635 52.936012 49.462276 53.330185 48.183937 53.925339 C 46.880543 54.3811 45.577152 54.836861 43.602528 55.193481 C 43.095596 55.8274 42.588665 56.461323 41.648972 57.602219 M 308.331421 218.549332 C 308.353058 219.548782 308.378479 220.548187 308.395752 221.547714 C 308.607086 233.777985 310.43573 235.140533 322.640625 233.034271 C 325.877289 232.475693 326.786133 231.026443 326.626068 228.026428 C 325.819122 212.901596 325.19162 197.766846 324.326019 182.645615 C 323.66214 171.047852 323.546387 171.054474 311.725403 171.041382 C 299.963501 171.028351 299.985504 171.035248 296.549988 181.992355 C 294.759369 187.7034 292.875244 193.385132 291.033356 199.080109 C 288.293671 194.608871 286.591705 190.312363 285.092255 185.946304 C 279.64563 170.087036 279.6745 170.140274 262.887451 171.023788 C 258.70163 171.244064 256.59494 172.610992 256.499847 177.260223 C 256.176453 193.071091 255.516357 208.87532 254.950653 224.680862 C 254.667267 232.598801 255.623978 233.638809 263.520752 233.449753 C 265.175598 233.410141 267.117096 233.584579 268.399719 232.799606 C 269.929199 231.863556 271.808929 230.080017 271.94342 228.525742 C 272.588287 221.073364 272.712646 213.575058 272.98053 206.091568 C 273.056244 203.976608 272.992096 201.856674 272.992096 199.739014 C 273.472961 199.737091 273.953827 199.735168 274.434692 199.733246 C 277.36087 209.260559 280.227356 218.807037 283.270935 228.296722 C 283.789948 229.914993 284.721771 232.014023 286.054901 232.649994 C 291.323059 235.163101 296.296844 232.456192 298.006409 226.709656 C 300.632538 217.882187 303.355377 209.083511 306.03717 200.272614 C 306.398956 200.329483 306.760773 200.386368 307.122559 200.443237 C 307.492828 206.159927 307.863068 211.876617 308.331421 218.549332 M 467.410309 209.123566 C 470.550018 214.996689 474.146423 220.680252 476.687103 226.801987 C 478.776917 231.837387 482.181946 233.498978 487.072632 233.426651 C 488.730377 233.40213 490.39212 233.009033 492.039948 233.077164 C 496.017395 233.241653 497.09317 231.318588 497.053772 227.557846 C 496.89325 212.22757 496.988068 196.894592 496.98822 181.562622 C 496.988342 170.488968 496.992096 170.607727 485.941833 170.991837 C 481.749817 171.137573 479.973328 172.611435 480.1698 177.001236 C 480.462067 183.532654 480.245544 190.086838 480.245544 196.631332 C 478.41156 195.837402 477.633301 194.866257 477.061218 193.78595 C 474.022491 188.04776 470.867065 182.361862 468.092499 176.496796 C 466.372192 172.860245 463.775452 171.186722 459.899109 171.149246 C 457.733734 171.128311 455.559509 171.190506 453.405457 171.015701 C 449.564148 170.703979 448.12677 172.205765 448.173126 176.19339 C 448.355133 191.856552 448.246735 207.523087 448.246582 223.18837 C 448.24649 233.831955 448.660919 234.126007 459.489929 233.515884 C 463.381256 233.296631 465.108826 231.96283 464.860809 227.74353 C 464.509399 221.764893 464.743958 215.749557 464.804626 209.750671 C 464.818817 208.347641 464.580322 205.973557 467.410309 209.123566 M 509.855865 171.205734 C 505.687592 170.963608 503.995941 172.657562 504.096802 177.080353 C 504.362274 188.722366 504.213165 200.374435 504.182281 212.0224 C 504.156311 221.810867 508.665222 228.769318 517.827026 231.886322 C 522.412659 233.446411 527.576172 233.93692 532.462585 233.863617 C 545.978821 233.660843 554.006592 225.325302 554.164185 211.855652 C 554.273193 202.538483 554.18811 193.21904 554.188538 183.900604 C 554.189148 170.075806 553.991394 169.984467 539.936096 171.085693 C 536.178711 171.380096 534.733582 172.766983 534.80011 176.636444 C 534.994751 187.948273 534.812927 199.266037 534.888916 210.58075 C 534.914673 214.408691 533.324341 216.789001 529.445801 216.814911 C 525.488831 216.841324 523.483032 214.801514 523.565491 210.53569 C 523.739075 201.553467 523.614319 192.565475 523.613708 183.579849 C 523.612793 170.820709 523.613464 170.820709 509.855865 171.205734 M 598.422058 181.927826 C 600.535767 173.758881 599.715515 172.427948 591.294922 171.097214 C 588.350281 170.631836 585.343018 170.367905 582.363037 170.35582 C 571.465637 170.3116 563.77832 175.77272 561.720947 184.838318 C 559.36792 195.206528 563.930786 204.164673 573.99115 208.919662 C 575.044128 209.417343 576.386902 209.639832 577.106506 210.433258 C 578.525085 211.99736 579.600708 213.872482 580.818176 215.618973 C 578.693787 216.06015 576.411987 217.206482 574.482117 216.775894 C 571.645447 216.143005 569.105347 214.271255 566.34436 213.162552 C 565.302551 212.744171 563.56543 212.449219 562.882019 213.004593 C 558.055054 216.926926 558.521118 227.87001 564.223206 230.441574 C 569.178467 232.676331 574.998291 233.770782 580.473755 233.91272 C 591.680298 234.203201 598.282288 228.743515 600.773071 218.508072 C 603.227234 208.423172 599.537659 200.861435 589.533508 195.521286 C 588.065674 194.737762 586.353821 194.275955 585.111755 193.238205 C 583.483398 191.877716 582.209595 190.092972 580.783264 188.490707 C 582.987488 187.87439 585.178528 187.20192 587.404663 186.678909 C 588.004639 186.537949 588.817078 186.669937 589.352478 186.983292 C 594.516052 190.005127 596.805725 187.302704 598.422058 181.927826 M 388.843384 234.006195 C 393.739624 233.060028 398.635834 232.113861 404.429993 230.994171 C 405.514923 231.530182 407.76181 233.007889 410.229706 233.768112 C 413.45108 234.760422 416.242126 233.798096 417.485413 230.321243 C 418.856934 226.485809 420.456268 221.231247 416.641205 219.351654 C 411.796326 216.964722 412.701202 213.751968 412.543091 210.172852 C 412.367249 206.191818 412.440521 202.154984 411.771332 198.251114 C 410.785675 192.501114 407.128906 188.81311 401.352844 188.402832 C 396.277222 188.042267 391.105682 188.701065 386.001587 189.178146 C 382.07901 189.544785 380.567627 191.871994 381.401001 195.814682 C 382.217621 199.677994 383.754181 201.867722 388.250122 200.2715 C 390.054932 199.630722 392.276184 199.599991 394.171387 199.977264 C 395.403412 200.222565 396.389038 201.705811 397.953674 203.031433 C 391.957062 204.147614 387.101837 204.526978 382.618195 206.021271 C 377.255737 207.808472 375.313538 212.466507 375.164001 217.899017 C 374.943054 225.926559 379.643188 231.808594 388.843384 234.006195 M 363.200348 221.097092 C 355.207031 223.403397 352.179779 222.864563 350.490295 218.369049 C 353.858398 218.110352 357.118805 218.012253 360.33432 217.580078 C 366.349304 216.771637 370.458313 213.669693 371.823334 207.470154 C 373.257446 200.956833 371.364685 195.528625 366.142181 191.546921 C 360.713043 187.407669 354.369171 187.072006 348.046967 188.79834 C 337.940094 191.558105 332.544434 200.845596 333.280243 214.121109 C 333.725189 222.148712 337.225647 228.656448 344.764191 232.069397 C 352.505066 235.573929 360.388794 234.881134 367.829224 230.956696 C 371.089447 229.237106 370.007141 226.195587 369.086548 223.43251 C 368.223419 220.841782 366.905243 219.288712 363.200348 221.097092 M 423.605194 212.499023 C 423.605133 215.998779 423.560852 219.499191 423.613129 222.998169 C 423.781921 234.29866 421.572754 233.326126 434.448792 233.553146 C 438.950806 233.632523 440.04071 231.813736 439.987396 227.600159 C 439.782745 211.43721 439.905334 195.270126 439.904694 179.104584 C 439.904358 170.433197 439.792694 170.328186 430.928955 170.649231 C 430.430023 170.667297 429.929749 170.766388 429.434265 170.742264 C 425.009918 170.526764 423.380127 172.400864 423.503815 177.004471 C 423.812653 188.495361 423.605743 200.000137 423.605194 212.499023 z" stroke-linecap="round"/>
</g>
		<g transform="matrix(1 0 0 1 -173.7936 13.2042)" id="Layer_1">
<path style="stroke: none; stroke-width: 1; stroke-dasharray: none; stroke-linecap: butt; stroke-dashoffset: 0; stroke-linejoin: miter; stroke-miterlimit: 4; is-custom-font: none; font-file-url: none; fill: rgb(27,82,138); fill-rule: nonzero; opacity: 1;" transform=" translate(-137.2064, -146.2042)" d="M 50.996433 52.953007 C 51.400738 52.885674 51.805046 52.81834 52.960556 52.790565 C 56.528362 52.78204 59.344959 52.733955 62.16156 52.685867 C 62.567032 52.779953 62.9725 52.874039 63.87326 53.263119 C 64.969788 53.591953 65.571022 53.625797 66.172264 53.659637 C 74.038483 57.140205 80.983566 61.872993 86.807907 69.131973 C 88.244026 69.620842 89.341293 69.567711 90.438568 69.51458 C 94.469666 63.65287 98.135445 57.491585 102.63028 52.010143 C 107.538902 46.02409 114.454666 43.601345 122.185745 43.612255 C 168.514999 43.677639 214.844391 43.712322 261.173065 43.91201 C 262.975372 43.919777 264.770874 45.502129 266.56955 46.350784 C 265.448547 47.761852 264.620972 49.796234 263.159546 50.484116 C 252.678177 55.417637 248.902298 64.773239 246.289825 74.406448 C 250.948608 77.952377 256.280334 80.452415 259.22702 84.633408 C 263.236664 90.322594 265.728729 97.182678 268.185028 103.79567 C 268.816162 105.49482 267.463379 108.6978 266.006989 110.269257 C 260.462799 116.251534 254.322708 121.683052 248.807129 127.689369 C 247.110031 129.53746 245.848969 132.555115 245.82518 135.050919 C 245.602844 158.380112 245.625931 181.712662 245.75856 205.043228 C 245.781143 209.01413 244.574936 211.790176 241.633377 214.584122 C 231.244217 224.451981 221.100388 234.584641 211.067154 244.816574 C 208.254105 247.685318 205.257965 248.79364 201.342484 248.787994 C 152.68013 248.717789 104.017593 248.708313 55.355305 248.796143 C 50.617176 248.804703 48.828705 246.940796 48.846085 242.255386 C 48.949295 214.42485 48.796059 186.593002 48.997623 158.76355 C 49.029976 154.296738 47.710987 152.957382 43.347649 153.183762 C 36.865696 153.520065 30.352303 153.339539 23.854197 153.246216 C 18.914625 153.175293 18.084713 151.729553 19.858183 147.040817 C 24.741695 134.129669 33.955181 124.62648 44.225246 115.945671 C 45.487774 114.878525 46.775375 113.841026 48.436981 112.472076 C 44.1077 104.33989 37.558525 98.720772 29.143564 96.157104 C 23.414606 94.411743 17.055027 94.7714 10.992038 94.064529 C 9.323972 93.870056 7.708378 93.225502 6.068705 92.787476 C 6.782253 91.086472 7.046069 88.897316 8.279673 87.760773 C 19.305578 77.602432 30.502434 67.629631 42.170677 57.319065 C 43.219509 56.454815 43.746635 55.873718 44.273762 55.292618 C 45.577152 54.836861 46.880543 54.3811 48.823116 53.905334 C 49.973675 53.574554 50.485054 53.263779 50.996433 52.953007 M 55.150898 155.927017 C 55.146805 182.910782 55.250751 209.895432 55.033798 236.877487 C 54.997021 241.45134 56.194824 242.730484 60.829899 242.712387 C 105.968712 242.536118 151.10849 242.606323 196.247986 242.606323 C 197.874374 242.606323 199.500748 242.606339 201.154205 242.606339 C 201.154205 201.454544 201.154205 160.862106 201.154205 119.137215 C 198.579163 121.059807 196.780243 122.18837 195.233963 123.594719 C 188.69165 129.545029 185.384659 137.350342 183.239517 145.657684 C 181.375992 152.874542 182.465469 153.13559 173.147141 153.127609 C 135.669724 153.095474 98.192184 153.087646 60.715042 153.194687 C 58.879658 153.199921 57.047611 154.375107 55.150898 155.927017 M 36.829487 131.351425 C 33.325809 136.210938 29.822134 141.070435 25.549475 146.99649 C 29.40052 146.99649 31.378986 146.996506 33.357452 146.996506 C 77.345757 146.996521 121.334053 146.996506 165.322357 146.996506 C 176.078262 146.996506 175.653473 146.810043 179.977554 136.96019 C 183.108353 129.828537 187.554825 123.274467 191.613464 116.111855 C 190.142227 116.111855 188.218781 116.111855 186.295334 116.111855 C 146.305969 116.111847 106.309525 116.522003 66.332062 115.832291 C 55.938835 115.652977 48.413952 119.052452 41.668591 126.010757 C 40.161907 127.564987 38.724392 129.186264 36.829487 131.351425 M 142.499878 110.375008 C 156.493958 110.374985 170.545685 109.589066 184.46492 110.609703 C 196.845505 111.517532 206.714996 108.70089 214.736221 98.918129 C 218.283813 94.591484 223.084595 91.297714 227.278946 87.493683 C 229.281982 85.677055 231.197464 83.763893 234.264267 80.83152 C 230.896896 80.83152 229.129837 80.831528 227.362762 80.831528 C 187.046494 80.831482 146.725662 81.163376 106.417046 80.608032 C 95.767113 80.461296 86.798637 81.841476 80.060204 90.717003 C 78.878578 92.273384 77.040138 93.319313 75.565536 94.667175 C 70.259605 99.517075 64.979576 104.395309 59.689762 109.26284 C 59.86961 109.633629 60.049454 110.004425 60.229301 110.375214 C 87.319489 110.375214 114.409676 110.375214 142.499878 110.375008 M 246.757706 57.219769 C 248.243698 55.120754 249.729675 53.02174 251.639755 50.323673 C 249.824661 50.209602 248.729691 50.082951 247.634445 50.080299 C 205.976044 49.979446 164.317642 49.844086 122.659203 49.827923 C 110.697067 49.823284 97.426796 62.123131 95.403816 75.002228 C 97.266151 75.002228 99.080574 75.00222 100.894989 75.00222 C 130.222595 75.002228 159.550186 75.002266 188.877792 75.002243 C 204.374756 75.002235 219.872299 74.932076 235.36824 75.058449 C 238.651382 75.08522 240.319931 74.467308 241.181366 70.757057 C 242.217529 66.294296 244.587936 62.141319 246.757706 57.219769 M 223.586502 224.087082 C 228.068237 219.61647 232.714417 215.293854 236.942917 210.595337 C 238.432739 208.939926 239.690125 206.372498 239.711914 204.207993 C 239.918243 183.719421 239.844147 163.227905 239.815948 142.737305 C 239.813904 141.245682 239.539734 139.75441 239.378799 138.128571 C 238.331985 138.433289 237.937271 138.431808 237.72493 138.627838 C 235.402145 140.772263 233.127014 142.968369 230.801544 145.109833 C 226.689484 148.89653 225.34198 148.245178 223.017197 143.333099 C 219.987106 136.930756 216.252319 130.849487 212.592407 124.767464 C 211.795547 123.44326 210.032166 122.700691 208.141754 121.251648 C 208.141754 160.814926 208.141754 199.314911 208.141754 239.284882 C 213.729401 233.784195 218.404327 229.182022 223.586502 224.087082 M 58.529232 102.112083 C 67.603645 93.899651 76.678055 85.68721 85.720398 77.503799 C 80.561562 69.842773 74.665474 64.34491 67.069756 60.827724 C 58.437794 56.830708 50.533592 57.104252 43.234219 64.19442 C 35.948643 71.271179 28.165443 77.834839 20.631847 84.658157 C 19.741386 85.464668 19.049353 86.490257 17.749697 88.022026 C 33.126427 88.497704 44.142303 95.546288 52.84885 107.23735 C 54.841564 105.447693 56.420822 104.029366 58.529232 102.112083 M 232.886246 91.384346 C 225.609207 99.34549 218.332169 107.306641 211.143311 115.17131 C 213.649948 117.88401 217.425079 121.376854 220.46315 125.423096 C 223.532745 129.511276 225.871902 134.147873 229.36792 139.927795 C 239.945618 128.91362 250.445877 118.045715 260.819427 107.058197 C 261.681244 106.145378 262.290771 104.269341 261.992493 103.102951 C 259.931976 95.045914 256.605377 87.723732 249.012451 83.224098 C 245.774155 81.305054 242.926239 81.055473 240.183029 84.267059 C 238.137924 86.661346 235.672318 88.696457 232.886246 91.384346 z" stroke-linecap="round"/>
</g>
		<g transform="matrix(1 0 0 1 -20.2241 69.2812)" id="Layer_1">
<path style="stroke: none; stroke-width: 1; stroke-dasharray: none; stroke-linecap: butt; stroke-dashoffset: 0; stroke-linejoin: miter; stroke-miterlimit: 4; is-custom-font: none; font-file-url: none; fill: rgb(240,128,9); fill-rule: nonzero; opacity: 1;" transform=" translate(-290.7759, -202.2813)" d="M 308.282349 218.07132 C 307.863068 211.876617 307.492828 206.159927 307.122559 200.443237 C 306.760773 200.386368 306.398956 200.329483 306.03717 200.272614 C 303.355377 209.083511 300.632538 217.882187 298.006409 226.709656 C 296.296844 232.456192 291.323059 235.163101 286.054901 232.649994 C 284.721771 232.014023 283.789948 229.914993 283.270935 228.296722 C 280.227356 218.807037 277.36087 209.260559 274.434692 199.733246 C 273.953827 199.735168 273.472961 199.737091 272.992096 199.739014 C 272.992096 201.856674 273.056244 203.976608 272.98053 206.091568 C 272.712646 213.575058 272.588287 221.073364 271.94342 228.525742 C 271.808929 230.080017 269.929199 231.863556 268.399719 232.799606 C 267.117096 233.584579 265.175598 233.410141 263.520752 233.449753 C 255.623978 233.638809 254.667267 232.598801 254.950653 224.680862 C 255.516357 208.87532 256.176453 193.071091 256.499847 177.260223 C 256.59494 172.610992 258.70163 171.244064 262.887451 171.023788 C 279.6745 170.140274 279.64563 170.087036 285.092255 185.946304 C 286.591705 190.312363 288.293671 194.608871 291.033356 199.080109 C 292.875244 193.385132 294.759369 187.7034 296.549988 181.992355 C 299.985504 171.035248 299.963501 171.028351 311.725403 171.041382 C 323.546387 171.054474 323.66214 171.047852 324.326019 182.645615 C 325.19162 197.766846 325.819122 212.901596 326.626068 228.026428 C 326.786133 231.026443 325.877289 232.475693 322.640625 233.034271 C 310.43573 235.140533 308.607086 233.777985 308.395752 221.547714 C 308.378479 220.548187 308.353058 219.548782 308.282349 218.07132 z" stroke-linecap="round"/>
</g>
		<g transform="matrix(1 0 0 1 161.6134 69.2875)" id="Layer_1">
<path style="stroke: none; stroke-width: 1; stroke-dasharray: none; stroke-linecap: butt; stroke-dashoffset: 0; stroke-linejoin: miter; stroke-miterlimit: 4; is-custom-font: none; font-file-url: none; fill: rgb(240,129,10); fill-rule: nonzero; opacity: 1;" transform=" translate(-472.6134, -202.2875)" d="M 467.206787 208.797714 C 464.580322 205.973557 464.818817 208.347641 464.804626 209.750671 C 464.743958 215.749557 464.509399 221.764893 464.860809 227.74353 C 465.108826 231.96283 463.381256 233.296631 459.489929 233.515884 C 448.660919 234.126007 448.24649 233.831955 448.246582 223.18837 C 448.246735 207.523087 448.355133 191.856552 448.173126 176.19339 C 448.12677 172.205765 449.564148 170.703979 453.405457 171.015701 C 455.559509 171.190506 457.733734 171.128311 459.899109 171.149246 C 463.775452 171.186722 466.372192 172.860245 468.092499 176.496796 C 470.867065 182.361862 474.022491 188.04776 477.061218 193.78595 C 477.633301 194.866257 478.41156 195.837402 480.245544 196.631332 C 480.245544 190.086838 480.462067 183.532654 480.1698 177.001236 C 479.973328 172.611435 481.749817 171.137573 485.941833 170.991837 C 496.992096 170.607727 496.988342 170.488968 496.98822 181.562622 C 496.988068 196.894592 496.89325 212.22757 497.053772 227.557846 C 497.09317 231.318588 496.017395 233.241653 492.039948 233.077164 C 490.39212 233.009033 488.730377 233.40213 487.072632 233.426651 C 482.181946 233.498978 478.776917 231.837387 476.687103 226.801987 C 474.146423 220.680252 470.550018 214.996689 467.206787 208.797714 z" stroke-linecap="round"/>
</g>
		<g transform="matrix(1 0 0 1 218.1562 69.268)" id="Layer_1">
<path style="stroke: none; stroke-width: 1; stroke-dasharray: none; stroke-linecap: butt; stroke-dashoffset: 0; stroke-linejoin: miter; stroke-miterlimit: 4; is-custom-font: none; font-file-url: none; fill: rgb(239,128,7); fill-rule: nonzero; opacity: 1;" transform=" translate(-529.1562, -202.268)" d="M 510.311401 171.166199 C 523.613464 170.820709 523.612793 170.820709 523.613708 183.579849 C 523.614319 192.565475 523.739075 201.553467 523.565491 210.53569 C 523.483032 214.801514 525.488831 216.841324 529.445801 216.814911 C 533.324341 216.789001 534.914673 214.408691 534.888916 210.58075 C 534.812927 199.266037 534.994751 187.948273 534.80011 176.636444 C 534.733582 172.766983 536.178711 171.380096 539.936096 171.085693 C 553.991394 169.984467 554.189148 170.075806 554.188538 183.900604 C 554.18811 193.21904 554.273193 202.538483 554.164185 211.855652 C 554.006592 225.325302 545.978821 233.660843 532.462585 233.863617 C 527.576172 233.93692 522.412659 233.446411 517.827026 231.886322 C 508.665222 228.769318 504.156311 221.810867 504.182281 212.0224 C 504.213165 200.374435 504.362274 188.722366 504.096802 177.080353 C 503.995941 172.657562 505.687592 170.963608 510.311401 171.166199 z" stroke-linecap="round"/>
</g>
		<g transform="matrix(1 0 0 1 269.541 69.1397)" id="Layer_1">
<path style="stroke: none; stroke-width: 1; stroke-dasharray: none; stroke-linecap: butt; stroke-dashoffset: 0; stroke-linejoin: miter; stroke-miterlimit: 4; is-custom-font: none; font-file-url: none; fill: rgb(240,129,10); fill-rule: nonzero; opacity: 1;" transform=" translate(-580.5411, -202.1396)" d="M 598.291199 182.288788 C 596.805725 187.302704 594.516052 190.005127 589.352478 186.983292 C 588.817078 186.669937 588.004639 186.537949 587.404663 186.678909 C 585.178528 187.20192 582.987488 187.87439 580.783264 188.490692 C 582.209595 190.092972 583.483398 191.877716 585.111755 193.238205 C 586.353821 194.275955 588.065674 194.737762 589.533508 195.521286 C 599.537659 200.861435 603.227234 208.423172 600.773071 218.508072 C 598.282288 228.743515 591.680298 234.203201 580.473755 233.91272 C 574.998291 233.770782 569.178467 232.676331 564.223206 230.441574 C 558.521118 227.87001 558.055054 216.926926 562.882019 213.004593 C 563.56543 212.449219 565.302551 212.744171 566.34436 213.162552 C 569.105347 214.271255 571.645447 216.143005 574.482117 216.775894 C 576.411987 217.206482 578.693787 216.06015 580.818176 215.618973 C 579.600708 213.872482 578.525085 211.99736 577.106506 210.433258 C 576.386902 209.639832 575.044128 209.417343 573.99115 208.919662 C 563.930786 204.164673 559.36792 195.206528 561.720947 184.838318 C 563.77832 175.77272 571.465637 170.3116 582.363037 170.35582 C 585.343018 170.367905 588.350281 170.631836 591.294922 171.097214 C 599.715515 172.427948 600.535767 173.758881 598.291199 182.288788 z" stroke-linecap="round"/>
</g>
		<g transform="matrix(1 0 0 1 86.0875 78.2182)" id="Layer_1">
<path style="stroke: none; stroke-width: 1; stroke-dasharray: none; stroke-linecap: butt; stroke-dashoffset: 0; stroke-linejoin: miter; stroke-miterlimit: 4; is-custom-font: none; font-file-url: none; fill: rgb(240,130,11); fill-rule: nonzero; opacity: 1;" transform=" translate(-397.0874, -211.2182)" d="M 388.413025 233.978058 C 379.643188 231.808594 374.943054 225.926559 375.164001 217.899017 C 375.313538 212.466507 377.255737 207.808472 382.618195 206.021271 C 387.101837 204.526978 391.957062 204.147614 397.953674 203.031433 C 396.389038 201.705811 395.403412 200.222565 394.171387 199.977264 C 392.276184 199.599991 390.054932 199.630722 388.250122 200.2715 C 383.754181 201.867722 382.217621 199.677994 381.401001 195.814682 C 380.567627 191.871994 382.07901 189.544785 386.001587 189.178146 C 391.105682 188.701065 396.277222 188.042267 401.352844 188.402832 C 407.128906 188.81311 410.785675 192.501114 411.771332 198.251114 C 412.440521 202.154984 412.367249 206.191818 412.543091 210.172852 C 412.701202 213.751968 411.796326 216.964722 416.641205 219.351654 C 420.456268 221.231247 418.856934 226.485809 417.485413 230.321243 C 416.242126 233.798096 413.45108 234.760422 410.229706 233.768112 C 407.76181 233.007889 405.514923 231.530182 404.429993 230.994171 C 398.635834 232.113861 393.739624 233.060028 388.413025 233.978058 M 397.425659 218.213333 C 397.117218 216.182251 398.555206 212.885605 394.624084 213.328094 C 393.264954 213.481094 391.475159 215.14505 391.036255 216.494278 C 390.66684 217.629868 391.819611 220.413345 392.566345 220.515823 C 394.054138 220.719986 395.725891 219.58342 397.425659 218.213333 z" stroke-linecap="round"/>
</g>
		<g transform="matrix(1 0 0 1 41.7503 78.0783)" id="Layer_1">
<path style="stroke: none; stroke-width: 1; stroke-dasharray: none; stroke-linecap: butt; stroke-dashoffset: 0; stroke-linejoin: miter; stroke-miterlimit: 4; is-custom-font: none; font-file-url: none; fill: rgb(240,130,12); fill-rule: nonzero; opacity: 1;" transform=" translate(-352.7503, -211.0783)" d="M 363.588074 220.97113 C 366.905243 219.288712 368.223419 220.841782 369.086548 223.43251 C 370.007141 226.195587 371.089447 229.237106 367.829224 230.956696 C 360.388794 234.881134 352.505066 235.573929 344.764191 232.069397 C 337.225647 228.656448 333.725189 222.148712 333.280243 214.121109 C 332.544434 200.845596 337.940094 191.558105 348.046967 188.79834 C 354.369171 187.072006 360.713043 187.407669 366.142181 191.546921 C 371.364685 195.528625 373.257446 200.956833 371.823334 207.470154 C 370.458313 213.669693 366.349304 216.771637 360.33432 217.580078 C 357.118805 218.012253 353.858398 218.110352 350.490295 218.369049 C 352.179779 222.864563 355.207031 223.403397 363.588074 220.97113 M 356.983398 203.941956 C 355.3078 203.203751 353.523712 201.748764 351.994965 201.980255 C 350.981659 202.133698 350.136688 204.645966 349.679077 206.235489 C 349.580109 206.579361 351.405182 207.916885 352.445343 208.059967 C 354.826843 208.387527 357.227875 208.201538 356.983398 203.941956 z" stroke-linecap="round"/>
</g>
		<g transform="matrix(1 0 0 1 120.7433 69.0582)" id="Layer_1">
<path style="stroke: none; stroke-width: 1; stroke-dasharray: none; stroke-linecap: butt; stroke-dashoffset: 0; stroke-linejoin: miter; stroke-miterlimit: 4; is-custom-font: none; font-file-url: none; fill: rgb(240,129,11); fill-rule: nonzero; opacity: 1;" transform=" translate(-431.7433, -202.0583)" d="M 423.605499 211.999176 C 423.605743 200.000137 423.812653 188.495361 423.503815 177.004471 C 423.380127 172.400864 425.009918 170.526764 429.434265 170.742264 C 429.929749 170.766388 430.430023 170.667297 430.928955 170.649231 C 439.792694 170.328186 439.904358 170.433197 439.904694 179.104584 C 439.905334 195.270126 439.782745 211.43721 439.987396 227.600159 C 440.04071 231.813736 438.950806 233.632523 434.448792 233.553146 C 421.572754 233.326126 423.781921 234.29866 423.613129 222.998169 C 423.560852 219.499191 423.605133 215.998779 423.605499 211.999176 z" stroke-linecap="round"/>
</g>
		<g transform="matrix(1 0 0 1 -253.3744 -80.4785)" id="Layer_1">
<path style="stroke: none; stroke-width: 1; stroke-dasharray: none; stroke-linecap: butt; stroke-dashoffset: 0; stroke-linejoin: miter; stroke-miterlimit: 4; is-custom-font: none; font-file-url: none; fill: rgb(162,184,207); fill-rule: nonzero; opacity: 1;" transform=" translate(-57.6256, -52.5214)" d="M 61.994804 52.355766 C 59.344959 52.733955 56.528362 52.78204 53.256447 52.70665 C 55.810104 52.397339 58.819077 52.211502 61.994804 52.355766 z" stroke-linecap="round"/>
</g>
		<g transform="matrix(1 0 0 1 -222.4666 -63.6089)" id="Layer_1">
<path style="stroke: none; stroke-width: 1; stroke-dasharray: none; stroke-linecap: butt; stroke-dashoffset: 0; stroke-linejoin: miter; stroke-miterlimit: 4; is-custom-font: none; font-file-url: none; fill: rgb(162,184,207); fill-rule: nonzero; opacity: 1;" transform=" translate(-88.5334, -69.391)" d="M 90.006027 69.443016 C 89.341293 69.567711 88.244026 69.620842 87.060684 69.348534 C 87.840897 69.139221 88.707191 69.255333 90.006027 69.443016 z" stroke-linecap="round"/>
</g>
		<g transform="matrix(1 0 0 1 -267.8374 -76.8457)" id="Layer_1">
<path style="stroke: none; stroke-width: 1; stroke-dasharray: none; stroke-linecap: butt; stroke-dashoffset: 0; stroke-linejoin: miter; stroke-miterlimit: 4; is-custom-font: none; font-file-url: none; fill: rgb(162,184,207); fill-rule: nonzero; opacity: 1;" transform=" translate(-43.1626, -56.1543)" d="M 43.938145 55.24305 C 43.746635 55.873718 43.219509 56.454815 42.387054 57.065575 C 42.588665 56.461323 43.095596 55.8274 43.938145 55.24305 z" stroke-linecap="round"/>
</g>
		<g transform="matrix(1 0 0 1 -245.8524 -79.6486)" id="Layer_1">
<path style="stroke: none; stroke-width: 1; stroke-dasharray: none; stroke-linecap: butt; stroke-dashoffset: 0; stroke-linejoin: miter; stroke-miterlimit: 4; is-custom-font: none; font-file-url: none; fill: rgb(162,184,207); fill-rule: nonzero; opacity: 1;" transform=" translate(-65.1476, -53.3514)" d="M 66.112213 53.399757 C 65.571022 53.625797 64.969788 53.591953 64.183029 53.302925 C 64.682396 53.078453 65.367287 53.109161 66.112213 53.399757 z" stroke-linecap="round"/>
</g>
		<g transform="matrix(1 0 0 1 -261.0013 -79.7239)" id="Layer_1">
<path style="stroke: none; stroke-width: 1; stroke-dasharray: none; stroke-linecap: butt; stroke-dashoffset: 0; stroke-linejoin: miter; stroke-miterlimit: 4; is-custom-font: none; font-file-url: none; fill: rgb(162,184,207); fill-rule: nonzero; opacity: 1;" transform=" translate(-49.9987, -53.2761)" d="M 50.840714 52.747421 C 50.485054 53.263779 49.973675 53.574554 49.156609 53.80484 C 49.462276 53.330185 50.073635 52.936012 50.840714 52.747421 z" stroke-linecap="round"/>
</g>
		<g transform="matrix(1 0 0 1 -182.9064 47.9249)" id="Layer_1">
<path style="stroke: none; stroke-width: 1; stroke-dasharray: none; stroke-linecap: butt; stroke-dashoffset: 0; stroke-linejoin: miter; stroke-miterlimit: 4; is-custom-font: none; font-file-url: none; fill: rgb(248,250,252); fill-rule: nonzero; opacity: 1;" transform=" translate(-128.0936, -180.9249)" d="M 55.182457 155.466248 C 57.047611 154.375107 58.879658 153.199921 60.715042 153.194687 C 98.192184 153.087646 135.669724 153.095474 173.147141 153.127609 C 182.465469 153.13559 181.375992 152.874542 183.239517 145.657684 C 185.384659 137.350342 188.69165 129.545029 195.233963 123.594719 C 196.780243 122.18837 198.579163 121.059807 201.154205 119.137215 C 201.154205 160.862106 201.154205 201.454544 201.154205 242.606339 C 199.500748 242.606339 197.874374 242.606323 196.247986 242.606323 C 151.10849 242.606323 105.968712 242.536118 60.829899 242.712387 C 56.194824 242.730484 54.997021 241.45134 55.033798 236.877487 C 55.250751 209.895432 55.146805 182.910782 55.182457 155.466248 M 168.549026 224.587875 C 168.456131 224.053436 168.36322 223.519012 168.521881 222.331665 C 168.37384 221.212662 168.225815 220.093674 168.218033 218.106903 C 167.456512 216.959473 166.694992 215.812027 166.024155 214.110779 C 165.989822 213.563095 165.95549 213.015411 166.88681 212.809326 C 167.270462 212.324997 167.985626 211.842651 167.988525 211.356049 C 168.040604 202.624771 168.044586 193.89238 167.90477 185.162689 C 167.895508 184.58461 166.65097 184.026291 166.149536 182.819534 C 166.093048 181.726364 166.03656 180.633179 166.945435 179.866394 C 168.985413 173.958954 168.729782 168.326752 165.003021 162.078186 C 161.096115 167.732925 160.167801 173.264359 159.424408 179.415802 C 159.278015 180.942764 159.131607 182.469711 159.018692 184.914795 C 159.173767 188.989975 159.328827 193.06514 159.807495 197.773682 C 160.198013 198.030411 160.588531 198.287155 161.038071 198.786179 C 161.038071 198.786179 161.456345 199.020447 161.561081 199.922989 C 161.423172 208.277283 161.285278 216.631561 161.072708 225.713425 C 162.375397 226.858154 163.678085 228.002884 165.71817 229.098587 C 166.549011 227.746399 167.379868 226.394226 168.549026 224.587875 M 92.021332 170.260574 C 91.371162 167.636307 90.606354 165.147995 86.176674 165.886826 C 80.347 164.926071 80.167503 169.525406 78.979942 173.168991 C 76.856606 179.68367 82.258247 183.899536 83.881668 190.108337 C 83.919388 191.797791 83.9571 193.487259 83.210114 195.47757 C 82.669914 206.167389 82.129723 216.857224 81.589531 227.547043 C 82.432701 227.806473 83.275879 228.065903 84.119049 228.325333 C 85.715614 225.89357 87.312187 223.461807 89.109001 220.107605 C 89.065056 214.40715 89.021103 208.70668 89.136604 202.080368 C 89.928734 195.018631 86.52063 187.299225 93.118004 180.757751 C 92.888649 177.470444 92.659294 174.183121 92.180786 170.917892 C 92.180786 170.917892 91.952232 171.019531 92.021332 170.260574 M 97.376175 181.41037 C 97.244911 182.26683 97.113655 183.123291 96.998169 183.99855 C 96.998169 183.99855 96.975037 183.991104 96.223373 183.954727 C 91.022408 193.342209 92.213257 202.790848 96.073799 212.933731 C 98.02066 215.290039 99.967514 217.646347 102.295937 220.564163 C 103.588745 221.59726 104.852882 222.668823 106.178909 223.657364 C 116.839363 231.604736 130.975601 231.827423 141.610718 223.503677 C 141.415726 223.337311 141.220718 223.170929 140.992599 222.991776 C 140.992599 222.991776 140.983795 223.026154 141.567535 223.635071 C 151.080109 219.626068 153.545776 210.992661 155.968018 201.363342 C 157.19754 189.066574 153.022186 179.134827 142.862167 171.100739 C 139.125244 169.461792 135.388336 167.822845 130.776871 166.168182 C 124.869019 166.882767 118.961166 167.597351 112.319389 168.163712 C 105.778748 170.475204 101.115761 174.900696 97.376175 181.41037 z" stroke-linecap="round"/>
</g>
		<g transform="matrix(1 0 0 1 -202.4185 -1.5889)" id="Layer_1">
<path style="stroke: none; stroke-width: 1; stroke-dasharray: none; stroke-linecap: butt; stroke-dashoffset: 0; stroke-linejoin: miter; stroke-miterlimit: 4; is-custom-font: none; font-file-url: none; fill: rgb(249,251,252); fill-rule: nonzero; opacity: 1;" transform=" translate(-108.5815, -131.411)" d="M 37.042259 131.064056 C 38.724392 129.186264 40.161907 127.564987 41.668591 126.010757 C 48.413952 119.052452 55.938835 115.652977 66.332062 115.832291 C 106.309525 116.522003 146.305969 116.111847 186.295334 116.111855 C 188.218781 116.111855 190.142227 116.111855 191.613464 116.111855 C 187.554825 123.274467 183.108353 129.828537 179.977554 136.96019 C 175.653473 146.810043 176.078262 146.996506 165.322357 146.996506 C 121.334053 146.996506 77.345757 146.996521 33.357452 146.996506 C 31.378986 146.996506 29.40052 146.99649 25.549475 146.99649 C 29.822134 141.070435 33.325809 136.210938 37.042259 131.064056 z" stroke-linecap="round"/>
</g>
		<g transform="matrix(1 0 0 1 -164.0229 -37.3159)" id="Layer_1">
<path style="stroke: none; stroke-width: 1; stroke-dasharray: none; stroke-linecap: butt; stroke-dashoffset: 0; stroke-linejoin: miter; stroke-miterlimit: 4; is-custom-font: none; font-file-url: none; fill: rgb(251,252,253); fill-rule: nonzero; opacity: 1;" transform=" translate(-146.977, -95.6841)" d="M 141.999878 110.375107 C 114.409676 110.375214 87.319489 110.375214 60.229301 110.375214 C 60.049454 110.004425 59.86961 109.633629 59.689762 109.26284 C 64.979576 104.395309 70.259605 99.517075 75.565536 94.667175 C 77.040138 93.319313 78.878578 92.273384 80.060204 90.717003 C 86.798637 81.841476 95.767113 80.461296 106.417046 80.608032 C 146.725662 81.163376 187.046494 80.831482 227.362762 80.831528 C 229.129837 80.831528 230.896896 80.83152 234.264267 80.83152 C 231.197464 83.763893 229.281982 85.677055 227.278946 87.493683 C 223.084595 91.297714 218.283813 94.591484 214.736221 98.918129 C 206.714996 108.70089 196.845505 111.517532 184.46492 110.609703 C 170.545685 109.589066 156.493958 110.374985 141.999878 110.375107 z" stroke-linecap="round"/>
</g>
		<g transform="matrix(1 0 0 1 -137.4782 -70.5564)" id="Layer_1">
<path style="stroke: none; stroke-width: 1; stroke-dasharray: none; stroke-linecap: butt; stroke-dashoffset: 0; stroke-linejoin: miter; stroke-miterlimit: 4; is-custom-font: none; font-file-url: none; fill: rgb(250,251,252); fill-rule: nonzero; opacity: 1;" transform=" translate(-173.5218, -62.4436)" d="M 246.569199 57.536995 C 244.587936 62.141319 242.217529 66.294296 241.181366 70.757057 C 240.319931 74.467308 238.651382 75.08522 235.36824 75.058449 C 219.872299 74.932076 204.374756 75.002235 188.877792 75.002243 C 159.550186 75.002266 130.222595 75.002228 100.894989 75.00222 C 99.080574 75.00222 97.266151 75.002228 95.403816 75.002228 C 97.426796 62.123131 110.697067 49.823284 122.659203 49.827923 C 164.317642 49.844086 205.976044 49.979446 247.634445 50.080299 C 248.729691 50.082951 249.824661 50.209602 251.639755 50.323673 C 249.729675 53.02174 248.243698 55.120754 246.569199 57.536995 z" stroke-linecap="round"/>
</g>
		<g transform="matrix(1 0 0 1 -87.003 47.2682)" id="Layer_1">
<path style="stroke: none; stroke-width: 1; stroke-dasharray: none; stroke-linecap: butt; stroke-dashoffset: 0; stroke-linejoin: miter; stroke-miterlimit: 4; is-custom-font: none; font-file-url: none; fill: rgb(249,250,252); fill-rule: nonzero; opacity: 1;" transform=" translate(-223.997, -180.2683)" d="M 223.332886 224.333466 C 218.404327 229.182022 213.729401 233.784195 208.141754 239.284882 C 208.141754 199.314911 208.141754 160.814926 208.141754 121.251648 C 210.032166 122.700691 211.795547 123.44326 212.592407 124.767464 C 216.252319 130.849487 219.987106 136.930756 223.017197 143.333099 C 225.34198 148.245178 226.689484 148.89653 230.801544 145.109833 C 233.127014 142.968369 235.402145 140.772263 237.72493 138.627838 C 237.937271 138.431808 238.331985 138.433289 239.378799 138.128571 C 239.539734 139.75441 239.813904 141.245682 239.815948 142.737305 C 239.844147 163.227905 239.918243 183.719421 239.711914 204.207993 C 239.690125 206.372498 238.432739 208.939926 236.942917 210.595337 C 232.714417 215.293854 228.068237 219.61647 223.332886 224.333466 z" stroke-linecap="round"/>
</g>
		<g transform="matrix(1 0 0 1 -259.2649 -50.2614)" id="Layer_1">
<path style="stroke: none; stroke-width: 1; stroke-dasharray: none; stroke-linecap: butt; stroke-dashoffset: 0; stroke-linejoin: miter; stroke-miterlimit: 4; is-custom-font: none; font-file-url: none; fill: rgb(247,249,251); fill-rule: nonzero; opacity: 1;" transform=" translate(-51.735, -82.7386)" d="M 58.264656 102.361557 C 56.420822 104.029366 54.841564 105.447693 52.84885 107.23735 C 44.142303 95.546288 33.126427 88.497704 17.749697 88.022026 C 19.049353 86.490257 19.741386 85.464668 20.631847 84.658157 C 28.165443 77.834839 35.948643 71.271179 43.234219 64.19442 C 50.533592 57.104252 58.437794 56.830708 67.069756 60.827724 C 74.665474 64.34491 80.561562 69.842773 85.720398 77.503799 C 76.678055 85.68721 67.603645 93.899651 58.264656 102.361557 z" stroke-linecap="round"/>
</g>
		<g transform="matrix(1 0 0 1 -74.3938 -22.1311)" id="Layer_1">
<path style="stroke: none; stroke-width: 1; stroke-dasharray: none; stroke-linecap: butt; stroke-dashoffset: 0; stroke-linejoin: miter; stroke-miterlimit: 4; is-custom-font: none; font-file-url: none; fill: rgb(248,250,251); fill-rule: nonzero; opacity: 1;" transform=" translate(-236.6063, -110.8689)" d="M 233.140121 91.137939 C 235.672318 88.696457 238.137924 86.661346 240.183029 84.267059 C 242.926239 81.055473 245.774155 81.305054 249.012451 83.224098 C 256.605377 87.723732 259.931976 95.045914 261.992493 103.102951 C 262.290771 104.269341 261.681244 106.145378 260.819427 107.058197 C 250.445877 118.045715 239.945618 128.91362 229.36792 139.927795 C 225.871902 134.147873 223.532745 129.511276 220.46315 125.423096 C 217.425079 121.376854 213.649948 117.88401 211.143311 115.17131 C 218.332169 107.306641 225.609207 99.34549 233.140121 91.137939 z" stroke-linecap="round"/>
</g>
		<g transform="matrix(1 0 0 1 83.1965 83.9138)" id="Layer_1">
<path style="stroke: none; stroke-width: 1; stroke-dasharray: none; stroke-linecap: butt; stroke-dashoffset: 0; stroke-linejoin: miter; stroke-miterlimit: 4; is-custom-font: none; font-file-url: none; fill: rgb(253,240,226); fill-rule: nonzero; opacity: 1;" transform=" translate(-394.1965, -216.9138)" d="M 397.373657 218.607025 C 395.725891 219.58342 394.054138 220.719986 392.566345 220.515823 C 391.819611 220.413345 390.66684 217.629868 391.036255 216.494278 C 391.475159 215.14505 393.264954 213.481094 394.624084 213.328094 C 398.555206 212.885605 397.117218 216.182251 397.373657 218.607025 z" stroke-linecap="round"/>
</g>
		<g transform="matrix(1 0 0 1 42.3552 72.0626)" id="Layer_1">
<path style="stroke: none; stroke-width: 1; stroke-dasharray: none; stroke-linecap: butt; stroke-dashoffset: 0; stroke-linejoin: miter; stroke-miterlimit: 4; is-custom-font: none; font-file-url: none; fill: rgb(252,232,210); fill-rule: nonzero; opacity: 1;" transform=" translate(-353.3552, -205.0627)" d="M 357.022888 204.34256 C 357.227875 208.201538 354.826843 208.387527 352.445343 208.059967 C 351.405182 207.916885 349.580109 206.579361 349.679077 206.235489 C 350.136688 204.645966 350.981659 202.133698 351.994965 201.980255 C 353.523712 201.748764 355.3078 203.203751 357.022888 204.34256 z" stroke-linecap="round"/>
</g>
		<g transform="matrix(1 0 0 1 -186.4644 63.536)" id="Layer_1">
<path style="stroke: none; stroke-width: 1; stroke-dasharray: none; stroke-linecap: butt; stroke-dashoffset: 0; stroke-linejoin: miter; stroke-miterlimit: 4; is-custom-font: none; font-file-url: none; fill: rgb(243,246,249); fill-rule: nonzero; opacity: 1;" transform=" translate(-124.5356, -196.536)" d="M 131.651428 166.183899 C 135.388336 167.822845 139.125244 169.461792 142.58963 171.482788 C 141.68425 171.938034 141.051407 172.011215 139.350311 172.207932 C 150.316544 179.782791 154.576599 189.753952 153.439728 202.433868 C 150.732864 207.887558 148.307419 213.037262 145.5159 217.980225 C 144.430405 219.902344 142.518997 221.358017 140.983795 223.026154 C 140.983795 223.026154 140.992599 222.991776 140.750809 222.865845 C 140.32399 222.796509 140.138962 222.853134 139.586288 222.956757 C 127.406898 229.100143 116.254982 227.956329 105.589302 220.136078 C 104.7714 219.536407 103.158012 220.021683 101.914368 220.002655 C 99.967514 217.646347 98.02066 215.290039 96.420036 212.429291 C 96.89093 210.801987 97.378952 209.571167 97.082504 208.573425 C 94.80439 200.906235 94.911407 193.326859 97.429207 185.742966 C 97.588806 185.262253 97.140526 184.579742 96.975037 183.991104 C 96.975037 183.991104 96.998169 183.99855 97.348114 184.142944 C 98.342041 183.231232 98.986023 182.175125 99.918938 181.004074 C 104.801003 177.243988 109.394142 173.598846 114.394211 169.962097 C 121.485603 169.558517 128.170059 169.146561 134.745956 168.741302 C 133.784363 167.946625 132.717896 167.065262 131.651428 166.183899 M 104.264618 191.106216 C 101.863876 197.137955 102.158157 202.893539 106.24807 208.791534 C 108.824112 211.194702 109.327911 215.821304 114.210892 216.716629 C 122.4571 221.248367 132.486359 220.166153 138.221252 213.554077 C 141.047745 210.514709 145.305695 208.584427 145.905228 202.970169 C 147.430664 194.753464 145.792984 187.524612 138.913864 181.229126 C 129.283447 173.52002 117.884903 173.801849 109.14534 182.074463 C 107.777626 184.996643 106.409912 187.918823 104.264618 191.106216 z" stroke-linecap="round"/>
</g>
		<g transform="matrix(1 0 0 1 -148.475 52.3713)" id="Layer_1">
<path style="stroke: none; stroke-width: 1; stroke-dasharray: none; stroke-linecap: butt; stroke-dashoffset: 0; stroke-linejoin: miter; stroke-miterlimit: 4; is-custom-font: none; font-file-url: none; fill: rgb(225,232,240); fill-rule: nonzero; opacity: 1;" transform=" translate(-162.5251, -185.3714)" d="M 158.985214 183.996674 C 159.131607 182.469711 159.278015 180.942764 160.066315 179.217987 C 161.963547 175.582169 163.218887 172.14415 164.474228 168.706116 C 164.741638 168.72673 165.009033 168.747345 165.276428 168.76796 C 165.510971 172.358643 165.745529 175.949326 165.980072 179.540009 C 166.03656 180.633179 166.093048 181.726364 166.049347 183.64444 C 165.808289 190.322403 165.667419 196.175476 165.327606 202.035416 C 164.863052 202.042007 164.597565 202.03656 164.285995 201.573471 C 163.311981 200.420807 162.384171 199.720627 161.456345 199.020447 C 161.456345 199.020447 161.038071 198.786179 161.32225 198.318542 C 161.553848 197.543808 161.501266 197.23671 161.408951 196.472595 C 161.279541 193.231964 161.39476 190.419632 161.010391 187.677307 C 160.828735 186.381256 159.690186 185.21936 158.985214 183.996674 z" stroke-linecap="round"/>
</g>
		<g transform="matrix(1 0 0 1 -225.6855 44.6712)" id="Layer_1">
<path style="stroke: none; stroke-width: 1; stroke-dasharray: none; stroke-linecap: butt; stroke-dashoffset: 0; stroke-linejoin: miter; stroke-miterlimit: 4; is-custom-font: none; font-file-url: none; fill: rgb(101,138,176); fill-rule: nonzero; opacity: 1;" transform=" translate(-85.3145, -177.6712)" d="M 83.857178 189.275116 C 82.258247 183.899536 76.856606 179.68367 78.979942 173.168991 C 80.167503 169.525406 80.347 164.926071 86.590225 166.323822 C 88.653252 168.180389 90.302742 169.59996 91.952232 171.019531 C 91.952232 171.019531 92.180786 170.917892 92.129066 171.191345 C 90.901215 173.209976 89.725082 174.95517 88.32605 176.718674 C 87.81192 176.809341 87.517105 176.861526 87.196655 176.548035 C 86.02507 175.817368 84.875557 175.432251 83.114601 174.842285 C 83.053719 174.471573 82.841225 173.177795 82.628731 171.884003 C 82.362015 171.887589 82.095299 171.891159 81.828583 171.894745 C 81.722656 173.589569 81.61673 175.284378 81.518677 177.360565 C 82.420341 179.452393 83.314133 181.162857 84.269577 183.252625 C 84.17321 185.513 84.015198 187.394058 83.857178 189.275116 z" stroke-linecap="round"/>
</g>
		<g transform="matrix(1 0 0 1 -189.2687 91.8129)" id="Layer_1">
<path style="stroke: none; stroke-width: 1; stroke-dasharray: none; stroke-linecap: butt; stroke-dashoffset: 0; stroke-linejoin: miter; stroke-miterlimit: 4; is-custom-font: none; font-file-url: none; fill: rgb(117,150,184); fill-rule: nonzero; opacity: 1;" transform=" translate(-121.7312, -224.8129)" d="M 102.105156 220.283401 C 103.158012 220.021683 104.7714 219.536407 105.589302 220.136078 C 116.254982 227.956329 127.406898 229.100143 139.74791 223.242981 C 140.637207 223.731369 140.997253 223.98053 141.3573 224.229706 C 130.975601 231.827423 116.839363 231.604736 106.178909 223.657364 C 104.852882 222.668823 103.588745 221.59726 102.105156 220.283401 z" stroke-linecap="round"/>
</g>
		<g transform="matrix(1 0 0 1 -225.7509 79.0183)" id="Layer_1">
<path style="stroke: none; stroke-width: 1; stroke-dasharray: none; stroke-linecap: butt; stroke-dashoffset: 0; stroke-linejoin: miter; stroke-miterlimit: 4; is-custom-font: none; font-file-url: none; fill: rgb(46,96,147); fill-rule: nonzero; opacity: 1;" transform=" translate(-85.2491, -212.0183)" d="M 88.908752 221.030029 C 87.312187 223.461807 85.715614 225.89357 84.119049 228.325333 C 83.275879 228.065903 82.432701 227.806473 81.589531 227.547043 C 82.129723 216.857224 82.669914 206.167389 83.733276 195.711304 C 84.507721 202.877991 84.661903 209.816956 85.089867 216.738983 C 85.178474 218.172287 86.284508 219.542679 87.251892 220.977982 C 88.024345 221.019272 88.466553 221.024643 88.908752 221.030029 z" stroke-linecap="round"/>
</g>
		<g transform="matrix(1 0 0 1 -225.5227 69.0247)" id="Layer_1">
<path style="stroke: none; stroke-width: 1; stroke-dasharray: none; stroke-linecap: butt; stroke-dashoffset: 0; stroke-linejoin: miter; stroke-miterlimit: 4; is-custom-font: none; font-file-url: none; fill: rgb(183,201,218); fill-rule: nonzero; opacity: 1;" transform=" translate(-85.4774, -202.0247)" d="M 86.921631 220.942062 C 86.284508 219.542679 85.178474 218.172287 85.089867 216.738983 C 84.661903 209.816956 84.507721 202.877991 84.125633 195.560883 C 83.9571 193.487259 83.919388 191.797791 83.869423 189.691727 C 84.015198 187.394058 84.17321 185.513 84.623825 183.300339 C 85.632042 183.003098 86.347679 183.037445 87.08532 183.48642 C 87.081635 190.272263 87.055931 196.643463 86.997208 203.480377 C 86.950005 209.61142 86.935822 215.276749 86.921631 220.942062 z" stroke-linecap="round"/>
</g>
		<g transform="matrix(1 0 0 1 -163.4009 53.9303)" id="Layer_1">
<path style="stroke: none; stroke-width: 1; stroke-dasharray: none; stroke-linecap: butt; stroke-dashoffset: 0; stroke-linejoin: miter; stroke-miterlimit: 4; is-custom-font: none; font-file-url: none; fill: rgb(113,147,182); fill-rule: nonzero; opacity: 1;" transform=" translate(-147.5991, -186.9303)" d="M 153.574875 202.047256 C 154.576599 189.753952 150.316544 179.782791 139.350311 172.207932 C 141.051407 172.011215 141.68425 171.938034 142.664856 171.81041 C 153.022186 179.134827 157.19754 189.066574 155.469315 201.718964 C 154.505371 202.06546 154.040115 202.056351 153.574875 202.047256 z" stroke-linecap="round"/>
</g>
		<g transform="matrix(1 0 0 1 -146.2928 79.2361)" id="Layer_1">
<path style="stroke: none; stroke-width: 1; stroke-dasharray: none; stroke-linecap: butt; stroke-dashoffset: 0; stroke-linejoin: miter; stroke-miterlimit: 4; is-custom-font: none; font-file-url: none; fill: rgb(95,133,173); fill-rule: nonzero; opacity: 1;" transform=" translate(-164.7072, -212.2361)" d="M 161.508713 199.47171 C 162.384171 199.720627 163.311981 200.420807 164.161392 202.025925 C 164.082977 209.137802 164.082977 215.344727 164.082977 221.551666 C 164.530624 221.567459 164.978271 221.583267 165.425903 221.59906 C 165.715134 220.731552 166.004364 219.864059 166.590912 218.995026 C 167.284729 218.987228 167.681259 218.980942 168.077774 218.97467 C 168.225815 220.093674 168.37384 221.212662 168.159576 222.756042 C 167.531113 223.787277 167.264938 224.394119 166.99939 225.000488 C 167 225 167.001221 224.999161 166.661118 224.995148 C 164.596466 224.989395 162.871918 224.987625 161.147369 224.985855 C 161.285278 216.631561 161.423172 208.277283 161.508713 199.47171 z" stroke-linecap="round"/>
</g>
		<g transform="matrix(1 0 0 1 -146.7871 37.8907)" id="Layer_1">
<path style="stroke: none; stroke-width: 1; stroke-dasharray: none; stroke-linecap: butt; stroke-dashoffset: 0; stroke-linejoin: miter; stroke-miterlimit: 4; is-custom-font: none; font-file-url: none; fill: rgb(91,130,171); fill-rule: nonzero; opacity: 1;" transform=" translate(-164.2129, -170.8907)" d="M 166.462753 179.703201 C 165.745529 175.949326 165.510971 172.358643 165.276428 168.76796 C 165.009033 168.747345 164.741638 168.72673 164.474228 168.706116 C 163.218887 172.14415 161.963547 175.582169 160.320587 179.017151 C 160.167801 173.264359 161.096115 167.732925 165.003021 162.078186 C 168.729782 168.326752 168.985413 173.958954 166.462753 179.703201 z" stroke-linecap="round"/>
</g>
		<g transform="matrix(1 0 0 1 -215.8568 65.0336)" id="Layer_1">
<path style="stroke: none; stroke-width: 1; stroke-dasharray: none; stroke-linecap: butt; stroke-dashoffset: 0; stroke-linejoin: miter; stroke-miterlimit: 4; is-custom-font: none; font-file-url: none; fill: rgb(95,133,173); fill-rule: nonzero; opacity: 1;" transform=" translate(-95.1432, -198.0336)" d="M 96.599213 183.972916 C 97.140526 184.579742 97.588806 185.262253 97.429207 185.742966 C 94.911407 193.326859 94.80439 200.906235 97.082504 208.573425 C 97.378952 209.571167 96.89093 210.801987 96.359406 212.09436 C 92.213257 202.790848 91.022408 193.342209 96.599213 183.972916 z" stroke-linecap="round"/>
</g>
		<g transform="matrix(1 0 0 1 -187.1004 34.9592)" id="Layer_1">
<path style="stroke: none; stroke-width: 1; stroke-dasharray: none; stroke-linecap: butt; stroke-dashoffset: 0; stroke-linejoin: miter; stroke-miterlimit: 4; is-custom-font: none; font-file-url: none; fill: rgb(119,152,185); fill-rule: nonzero; opacity: 1;" transform=" translate(-123.8996, -167.9593)" d="M 131.214142 166.176041 C 132.717896 167.065262 133.784363 167.946625 134.745956 168.741302 C 128.170059 169.146561 121.485603 169.558517 114.305138 169.742523 C 113.55719 169.113693 113.305252 168.712814 113.053314 168.311935 C 118.961166 167.597351 124.869019 166.882767 131.214142 166.176041 z" stroke-linecap="round"/>
</g>
		<g transform="matrix(1 0 0 1 -162.7009 79.7088)" id="Layer_1">
<path style="stroke: none; stroke-width: 1; stroke-dasharray: none; stroke-linecap: butt; stroke-dashoffset: 0; stroke-linejoin: miter; stroke-miterlimit: 4; is-custom-font: none; font-file-url: none; fill: rgb(95,133,173); fill-rule: nonzero; opacity: 1;" transform=" translate(-148.2991, -212.7089)" d="M 153.439728 202.433868 C 154.040115 202.056351 154.505371 202.06546 155.322556 202.106354 C 153.545776 210.992661 151.080109 219.626068 141.275665 223.330612 C 142.518997 221.358017 144.430405 219.902344 145.5159 217.980225 C 148.307419 213.037262 150.732864 207.887558 153.439728 202.433868 z" stroke-linecap="round"/>
</g>
		<g transform="matrix(1 0 0 1 -144.2258 65.0926)" id="Layer_1">
<path style="stroke: none; stroke-width: 1; stroke-dasharray: none; stroke-linecap: butt; stroke-dashoffset: 0; stroke-linejoin: miter; stroke-miterlimit: 4; is-custom-font: none; font-file-url: none; fill: rgb(91,130,171); fill-rule: nonzero; opacity: 1;" transform=" translate(-166.7742, -198.0927)" d="M 165.526566 202.028549 C 165.667419 196.175476 165.808289 190.322403 165.965073 183.96405 C 166.65097 184.026291 167.895508 184.58461 167.90477 185.162689 C 168.044586 193.89238 168.040604 202.624771 167.988525 211.356049 C 167.985626 211.842651 167.270462 212.324997 166.452423 212.201843 C 165.854218 208.405762 165.690384 205.217148 165.526566 202.028549 z" stroke-linecap="round"/>
</g>
		<g transform="matrix(1 0 0 1 -205.097 41.6163)" id="Layer_1">
<path style="stroke: none; stroke-width: 1; stroke-dasharray: none; stroke-linecap: butt; stroke-dashoffset: 0; stroke-linejoin: miter; stroke-miterlimit: 4; is-custom-font: none; font-file-url: none; fill: rgb(113,147,182); fill-rule: nonzero; opacity: 1;" transform=" translate(-105.9029, -174.6164)" d="M 112.686356 168.237823 C 113.305252 168.712814 113.55719 169.113693 113.898193 169.734131 C 109.394142 173.598846 104.801003 177.243988 99.487427 180.966049 C 98.480537 181.016708 98.194099 180.990463 97.907654 180.964203 C 101.115761 174.900696 105.778748 170.475204 112.686356 168.237823 z" stroke-linecap="round"/>
</g>
		<g transform="matrix(1 0 0 1 -145.8117 78.8172)" id="Layer_1">
<path style="stroke: none; stroke-width: 1; stroke-dasharray: none; stroke-linecap: butt; stroke-dashoffset: 0; stroke-linejoin: miter; stroke-miterlimit: 4; is-custom-font: none; font-file-url: none; fill: rgb(238,242,246); fill-rule: nonzero; opacity: 1;" transform=" translate(-165.1883, -211.8172)" d="M 165.327606 202.035416 C 165.690384 205.217148 165.854218 208.405762 165.969604 212.031036 C 165.95549 213.015411 165.989822 213.563095 166.037506 214.825104 C 166.13176 216.691818 166.212677 217.844177 166.293579 218.996552 C 166.004364 219.864059 165.715134 220.731552 165.425903 221.59906 C 164.978271 221.583267 164.530624 221.567459 164.082977 221.551666 C 164.082977 215.344727 164.082977 209.137802 164.207581 202.478409 C 164.597565 202.03656 164.863052 202.042007 165.327606 202.035416 z" stroke-linecap="round"/>
</g>
		<g transform="matrix(1 0 0 1 -221.2693 58.4153)" id="Layer_1">
<path style="stroke: none; stroke-width: 1; stroke-dasharray: none; stroke-linecap: butt; stroke-dashoffset: 0; stroke-linejoin: miter; stroke-miterlimit: 4; is-custom-font: none; font-file-url: none; fill: rgb(119,152,185); fill-rule: nonzero; opacity: 1;" transform=" translate(-89.7307, -191.4153)" d="M 87.030228 203.014679 C 87.055931 196.643463 87.081635 190.272263 87.347565 183.303558 C 88.709351 181.702057 89.830894 180.698044 91.278786 179.815948 C 91.880508 180.304871 92.155876 180.67189 92.431244 181.038925 C 86.52063 187.299225 89.928734 195.018631 88.732292 202.536072 C 87.895393 202.999405 87.462814 203.007034 87.030228 203.014679 z" stroke-linecap="round"/>
</g>
		<g transform="matrix(1 0 0 1 -222.9996 78.9973)" id="Layer_1">
<path style="stroke: none; stroke-width: 1; stroke-dasharray: none; stroke-linecap: butt; stroke-dashoffset: 0; stroke-linejoin: miter; stroke-miterlimit: 4; is-custom-font: none; font-file-url: none; fill: rgb(91,130,171); fill-rule: nonzero; opacity: 1;" transform=" translate(-88.0003, -211.9973)" d="M 86.997208 203.480392 C 87.462814 203.007034 87.895393 202.999405 88.652565 202.998993 C 89.021103 208.70668 89.065056 214.40715 89.008881 220.568817 C 88.466553 221.024643 88.024345 221.019272 87.251892 220.977982 C 86.935822 215.276749 86.950005 209.61142 86.997208 203.480392 z" stroke-linecap="round"/>
</g>
		<g transform="matrix(1 0 0 1 -220.3237 43.0393)" id="Layer_1">
<path style="stroke: none; stroke-width: 1; stroke-dasharray: none; stroke-linecap: butt; stroke-dashoffset: 0; stroke-linejoin: miter; stroke-miterlimit: 4; is-custom-font: none; font-file-url: none; fill: rgb(230,236,242); fill-rule: nonzero; opacity: 1;" transform=" translate(-90.6764, -176.0393)" d="M 92.774628 180.898346 C 92.155876 180.67189 91.880508 180.304871 91.273132 179.45491 C 90.14373 178.214767 89.346329 177.457565 88.548943 176.700348 C 89.725082 174.95517 90.901215 173.209976 92.253647 171.180298 C 92.659294 174.183121 92.888649 177.470444 92.774628 180.898346 z" stroke-linecap="round"/>
</g>
		<g transform="matrix(1 0 0 1 -150.8745 57.798)" id="Layer_1">
<path style="stroke: none; stroke-width: 1; stroke-dasharray: none; stroke-linecap: butt; stroke-dashoffset: 0; stroke-linejoin: miter; stroke-miterlimit: 4; is-custom-font: none; font-file-url: none; fill: rgb(105,141,178); fill-rule: nonzero; opacity: 1;" transform=" translate(-160.1255, -190.798)" d="M 159.001953 184.455734 C 159.690186 185.21936 160.828735 186.381256 161.010391 187.677307 C 161.39476 190.419632 161.279541 193.231964 160.914642 196.513 C 160.134674 197.053711 159.809296 197.097015 159.483902 197.14032 C 159.328827 193.06514 159.173767 188.989975 159.001953 184.455734 z" stroke-linecap="round"/>
</g>
		<g transform="matrix(1 0 0 1 -221.5052 35.3527)" id="Layer_1">
<path style="stroke: none; stroke-width: 1; stroke-dasharray: none; stroke-linecap: butt; stroke-dashoffset: 0; stroke-linejoin: miter; stroke-miterlimit: 4; is-custom-font: none; font-file-url: none; fill: rgb(95,133,173); fill-rule: nonzero; opacity: 1;" transform=" translate(-89.4947, -168.3527)" d="M 91.986786 170.640045 C 90.302742 169.59996 88.653252 168.180389 87.002655 166.394119 C 90.606354 165.147995 91.371162 167.636307 91.986786 170.640045 z" stroke-linecap="round"/>
</g>
		<g transform="matrix(1 0 0 1 -147.2135 94.1084)" id="Layer_1">
<path style="stroke: none; stroke-width: 1; stroke-dasharray: none; stroke-linecap: butt; stroke-dashoffset: 0; stroke-linejoin: miter; stroke-miterlimit: 4; is-custom-font: none; font-file-url: none; fill: rgb(105,141,178); fill-rule: nonzero; opacity: 1;" transform=" translate(-163.7865, -227.1084)" d="M 161.110046 225.34964 C 162.871918 224.987625 164.596466 224.989395 166.463013 225.278595 C 166.063583 226.759903 165.522171 227.953751 164.980774 229.147614 C 163.678085 228.002884 162.375397 226.858154 161.110046 225.34964 z" stroke-linecap="round"/>
</g>
		<g transform="matrix(1 0 0 1 -144.2199 94.065)" id="Layer_1">
<path style="stroke: none; stroke-width: 1; stroke-dasharray: none; stroke-linecap: butt; stroke-dashoffset: 0; stroke-linejoin: miter; stroke-miterlimit: 4; is-custom-font: none; font-file-url: none; fill: rgb(95,133,173); fill-rule: nonzero; opacity: 1;" transform=" translate(-166.7801, -227.065)" d="M 165.349457 229.123108 C 165.522171 227.953751 166.063583 226.759903 166.803101 225.282608 C 167.001221 224.999161 167 225 167.302429 225.009705 C 167.806808 225.026978 168.008774 225.034515 168.210724 225.042053 C 167.379868 226.394226 166.549011 227.746399 165.349457 229.123108 z" stroke-linecap="round"/>
</g>
		<g transform="matrix(1 0 0 1 -143.9299 84.0485)" id="Layer_1">
<path style="stroke: none; stroke-width: 1; stroke-dasharray: none; stroke-linecap: butt; stroke-dashoffset: 0; stroke-linejoin: miter; stroke-miterlimit: 4; is-custom-font: none; font-file-url: none; fill: rgb(91,130,171); fill-rule: nonzero; opacity: 1;" transform=" translate(-167.07, -217.0485)" d="M 166.590897 218.995026 C 166.212677 217.844177 166.13176 216.691818 165.992157 215.10202 C 166.694992 215.812027 167.456512 216.959473 168.147903 218.540771 C 167.681259 218.980942 167.284729 218.987228 166.590897 218.995026 z" stroke-linecap="round"/>
</g>
		<g transform="matrix(1 0 0 1 -212.786 49.5837)" id="Layer_1">
<path style="stroke: none; stroke-width: 1; stroke-dasharray: none; stroke-linecap: butt; stroke-dashoffset: 0; stroke-linejoin: miter; stroke-miterlimit: 4; is-custom-font: none; font-file-url: none; fill: rgb(95,133,173); fill-rule: nonzero; opacity: 1;" transform=" translate(-98.214, -182.5837)" d="M 97.641914 181.187286 C 98.194099 180.990463 98.480537 181.016708 99.198486 181.080994 C 98.986023 182.175125 98.342041 183.231232 97.340233 184.133545 C 97.113655 183.123291 97.244911 182.26683 97.641914 181.187286 z" stroke-linecap="round"/>
</g>
		<g transform="matrix(1 0 0 1 -143.1484 91.0501)" id="Layer_1">
<path style="stroke: none; stroke-width: 1; stroke-dasharray: none; stroke-linecap: butt; stroke-dashoffset: 0; stroke-linejoin: miter; stroke-miterlimit: 4; is-custom-font: none; font-file-url: none; fill: rgb(105,141,178); fill-rule: nonzero; opacity: 1;" transform=" translate(-167.8517, -224.0501)" d="M 168.379883 224.814972 C 168.008774 225.034515 167.806808 225.026978 167.301819 225.010193 C 167.264938 224.394119 167.531113 223.787277 168.033798 223.082489 C 168.36322 223.519012 168.456131 224.053436 168.379883 224.814972 z" stroke-linecap="round"/>
</g>
		<g transform="matrix(1 0 0 1 -170.2003 90.3683)" id="Layer_1">
<path style="stroke: none; stroke-width: 1; stroke-dasharray: none; stroke-linecap: butt; stroke-dashoffset: 0; stroke-linejoin: miter; stroke-miterlimit: 4; is-custom-font: none; font-file-url: none; fill: rgb(95,133,173); fill-rule: nonzero; opacity: 1;" transform=" translate(-140.7998, -223.3682)" d="M 141.484009 223.866699 C 140.997253 223.98053 140.637207 223.731369 140.11554 223.195984 C 140.138962 222.853134 140.32399 222.796509 140.767365 222.872223 C 141.220718 223.170929 141.415726 223.337311 141.484009 223.866699 z" stroke-linecap="round"/>
</g>
		<g transform="matrix(1 0 0 1 -150.4548 64.5924)" id="Layer_1">
<path style="stroke: none; stroke-width: 1; stroke-dasharray: none; stroke-linecap: butt; stroke-dashoffset: 0; stroke-linejoin: miter; stroke-miterlimit: 4; is-custom-font: none; font-file-url: none; fill: rgb(95,133,173); fill-rule: nonzero; opacity: 1;" transform=" translate(-160.5452, -197.5925)" d="M 159.645691 197.457001 C 159.809296 197.097015 160.134674 197.053711 160.954376 196.970016 C 161.501266 197.23671 161.553848 197.543808 161.29274 198.197388 C 160.588531 198.287155 160.198013 198.030411 159.645691 197.457001 z" stroke-linecap="round"/>
</g>
		<g transform="matrix(1 0 0 1 -184.9891 75.8272)" id="Layer_1">
<path style="stroke: none; stroke-width: 1; stroke-dasharray: none; stroke-linecap: butt; stroke-dashoffset: 0; stroke-linejoin: miter; stroke-miterlimit: 4; is-custom-font: none; font-file-url: none; fill: rgb(206,217,230); fill-rule: nonzero; opacity: 1;" transform=" translate(-126.0109, -208.8273)" d="M 113.979637 215.99733 C 109.327911 215.821304 108.824112 211.194702 106.2052 208.088684 C 106.630753 205.223129 107.099167 203.06044 107.835861 200.987167 C 108.403915 201.728607 108.70369 202.380615 108.988464 203.40094 C 112.50592 214.390152 126.710281 218.612427 134.825089 211.373215 C 135.282822 210.96489 134.905975 209.621048 134.998047 208.38649 C 136.318466 206.354095 137.55838 204.647827 139.031982 203.176056 C 140.554581 202.451935 141.843475 201.493317 143.152222 200.889435 C 144.053619 202.079788 144.93515 202.915405 145.816696 203.751007 C 145.305695 208.584427 141.047745 210.514709 137.670227 213.827362 C 131.513672 214.999329 125.926338 216.052765 120.29303 216.715088 C 118.245003 216.955856 116.087296 216.263779 113.979637 215.99733 z" stroke-linecap="round"/>
</g>
		<g transform="matrix(1 0 0 1 -186.7877 46.3548)" id="Layer_1">
<path style="stroke: none; stroke-width: 1; stroke-dasharray: none; stroke-linecap: butt; stroke-dashoffset: 0; stroke-linejoin: miter; stroke-miterlimit: 4; is-custom-font: none; font-file-url: none; fill: rgb(117,150,184); fill-rule: nonzero; opacity: 1;" transform=" translate(-124.2123, -179.3548)" d="M 109.840591 181.947937 C 117.884903 173.801849 129.283447 173.52002 138.584076 181.622589 C 137.909515 182.096664 137.564728 182.177292 136.930527 182.148193 C 132.129318 180.748367 127.649818 178.633942 123.09449 178.455551 C 120.012901 178.334869 115.300644 178.076065 114.033844 183.011154 C 114.026848 183.028198 113.99173 183.039352 113.699684 182.838409 C 112.947121 182.710663 112.486595 182.783844 111.711349 182.87912 C 110.877945 182.583435 110.359268 182.265686 109.840591 181.947937 z" stroke-linecap="round"/>
</g>
		<g transform="matrix(1 0 0 1 -169.1857 59.6375)" id="Layer_1">
<path style="stroke: none; stroke-width: 1; stroke-dasharray: none; stroke-linecap: butt; stroke-dashoffset: 0; stroke-linejoin: miter; stroke-miterlimit: 4; is-custom-font: none; font-file-url: none; fill: rgb(91,130,171); fill-rule: nonzero; opacity: 1;" transform=" translate(-141.8143, -192.6375)" d="M 137.21994 182.257935 C 137.564728 182.177292 137.909515 182.096664 138.776047 181.914398 C 145.792984 187.524612 147.430664 194.753464 145.860962 203.360596 C 144.93515 202.915405 144.053619 202.079788 143.111237 200.500015 C 143.021652 197.811508 142.99292 195.867142 143.002731 193.538651 C 141.10083 189.522308 139.160385 185.890121 137.21994 182.257935 z" stroke-linecap="round"/>
</g>
		<g transform="matrix(1 0 0 1 -205.815 66.4028)" id="Layer_1">
<path style="stroke: none; stroke-width: 1; stroke-dasharray: none; stroke-linecap: butt; stroke-dashoffset: 0; stroke-linejoin: miter; stroke-miterlimit: 4; is-custom-font: none; font-file-url: none; fill: rgb(77,120,164); fill-rule: nonzero; opacity: 1;" transform=" translate(-105.1849, -199.4028)" d="M 107.567581 200.897751 C 107.099167 203.06044 106.630753 205.223129 106.093567 207.834427 C 102.158157 202.893539 101.863876 197.137955 104.613205 191.007202 C 104.961792 190.908173 104.982025 191.009949 105.01384 191.356171 C 105.797806 192.474396 106.549965 193.246414 107.340637 194.448334 C 107.441956 196.884735 107.504768 198.891251 107.567581 200.897751 z" stroke-linecap="round"/>
</g>
		<g transform="matrix(1 0 0 1 -185.2053 83.7836)" id="Layer_1">
<path style="stroke: none; stroke-width: 1; stroke-dasharray: none; stroke-linecap: butt; stroke-dashoffset: 0; stroke-linejoin: miter; stroke-miterlimit: 4; is-custom-font: none; font-file-url: none; fill: rgb(105,141,178); fill-rule: nonzero; opacity: 1;" transform=" translate(-125.7947, -216.7836)" d="M 114.095261 216.356979 C 116.087296 216.263779 118.245003 216.955856 120.29303 216.715088 C 125.926338 216.052765 131.513672 214.999329 137.49411 214.132202 C 132.486359 220.166153 122.4571 221.248367 114.095261 216.356979 z" stroke-linecap="round"/>
</g>
		<g transform="matrix(1 0 0 1 -202.5684 53.5106)" id="Layer_1">
<path style="stroke: none; stroke-width: 1; stroke-dasharray: none; stroke-linecap: butt; stroke-dashoffset: 0; stroke-linejoin: miter; stroke-miterlimit: 4; is-custom-font: none; font-file-url: none; fill: rgb(203,215,228); fill-rule: nonzero; opacity: 1;" transform=" translate(-108.4317, -186.5106)" d="M 109.492966 182.0112 C 110.359268 182.265686 110.877945 182.583435 111.619843 183.145142 C 111.888741 184.245346 111.934395 185.101608 111.84433 186.220551 C 111.160004 187.045609 110.611404 187.608002 110.010345 187.845642 C 109.292145 187.595337 108.421158 187.430222 108.00045 187.790665 C 106.890022 188.742035 105.974907 189.921371 104.982025 191.009949 C 104.982025 191.009949 104.961792 190.908173 105.001999 190.874573 C 106.409912 187.918823 107.777626 184.996643 109.492966 182.0112 z" stroke-linecap="round"/>
</g>
		<g transform="matrix(1 0 0 1 -224.5826 46.8551)" id="Layer_1">
<path style="stroke: none; stroke-width: 1; stroke-dasharray: none; stroke-linecap: butt; stroke-dashoffset: 0; stroke-linejoin: miter; stroke-miterlimit: 4; is-custom-font: none; font-file-url: none; fill: rgb(248,250,252); fill-rule: nonzero; opacity: 1;" transform=" translate(-86.4174, -179.8551)" d="M 88.32605 176.718674 C 89.346329 177.457565 90.14373 178.214767 90.946777 179.333008 C 89.830894 180.698044 88.709351 181.702057 87.325562 182.888931 C 86.347679 183.037445 85.632042 183.003098 84.562164 182.921021 C 83.314133 181.162857 82.420341 179.452393 81.888039 177.457794 C 83.90593 177.080292 85.562332 176.986938 87.218727 176.893585 C 87.517105 176.861526 87.81192 176.809341 88.32605 176.718674 z" stroke-linecap="round"/>
</g>
		<g transform="matrix(1 0 0 1 -226.5441 41.4803)" id="Layer_1">
<path style="stroke: none; stroke-width: 1; stroke-dasharray: none; stroke-linecap: butt; stroke-dashoffset: 0; stroke-linejoin: miter; stroke-miterlimit: 4; is-custom-font: none; font-file-url: none; fill: rgb(230,236,242); fill-rule: nonzero; opacity: 1;" transform=" translate(-84.4559, -174.4803)" d="M 87.196655 176.548035 C 85.562332 176.986938 83.90593 177.080292 81.880173 177.076416 C 81.61673 175.284378 81.722656 173.589569 81.828583 171.894745 C 82.095299 171.891159 82.362015 171.887589 82.628731 171.884003 C 82.841225 173.177795 83.053719 174.471573 83.114601 174.842285 C 84.875557 175.432251 86.02507 175.817368 87.196655 176.548035 z" stroke-linecap="round"/>
</g>
		<g transform="matrix(1 0 0 1 -187.6894 64.618)" id="Layer_1">
<path style="stroke: none; stroke-width: 1; stroke-dasharray: none; stroke-linecap: butt; stroke-dashoffset: 0; stroke-linejoin: miter; stroke-miterlimit: 4; is-custom-font: none; font-file-url: none; fill: rgb(250,252,253); fill-rule: nonzero; opacity: 1;" transform=" translate(-123.3106, -197.618)" d="M 107.835861 200.987167 C 107.504768 198.891251 107.441956 196.884735 107.387405 194.505692 C 107.395676 194.133148 107.544846 194.152283 107.794106 194.344818 C 109.375969 192.975601 110.867462 191.521637 112.013145 189.833038 C 116.523346 183.185516 125.290367 181.213943 132.163956 185.224701 C 139.265182 189.368301 139.918839 195.79007 138.798279 202.941559 C 137.55838 204.647827 136.318466 206.354095 134.637848 208.497803 C 124.408768 214.299423 118.809578 213.146515 111.450417 204.36438 C 110.895409 203.702057 109.831055 203.466553 109.003464 203.032654 C 108.70369 202.380615 108.403915 201.728607 107.835861 200.987167 z" stroke-linecap="round"/>
</g>
		<g transform="matrix(1 0 0 1 -185.4547 58.8544)" id="Layer_1">
<path style="stroke: none; stroke-width: 1; stroke-dasharray: none; stroke-linecap: butt; stroke-dashoffset: 0; stroke-linejoin: miter; stroke-miterlimit: 4; is-custom-font: none; font-file-url: none; fill: rgb(106,142,178); fill-rule: nonzero; opacity: 1;" transform=" translate(-125.5453, -191.8544)" d="M 139.031982 203.176056 C 139.918839 195.79007 139.265182 189.368301 132.163956 185.224701 C 125.290367 181.213943 116.523346 183.185516 112.013145 189.833038 C 110.867462 191.521637 109.375969 192.975601 107.999214 194.024933 C 108.657639 191.731796 109.360214 189.95108 110.06279 188.17038 C 110.611404 187.608002 111.160004 187.045609 112.109314 186.058807 C 113.003929 184.769379 113.497826 183.904373 113.99173 183.039352 C 113.99173 183.039352 114.026848 183.028198 114.414589 183.066803 C 125.568695 177.681625 135.471497 181.015915 140.789368 191.773911 C 141.216263 192.637543 142.225555 193.213272 142.964203 193.922791 C 142.99292 195.867142 143.021652 197.811508 143.09137 200.145279 C 141.843475 201.493317 140.554581 202.451935 139.031982 203.176056 z" stroke-linecap="round"/>
</g>
		<g transform="matrix(1 0 0 1 -188.9874 76.1839)" id="Layer_1">
<path style="stroke: none; stroke-width: 1; stroke-dasharray: none; stroke-linecap: butt; stroke-dashoffset: 0; stroke-linejoin: miter; stroke-miterlimit: 4; is-custom-font: none; font-file-url: none; fill: rgb(117,150,184); fill-rule: nonzero; opacity: 1;" transform=" translate(-122.0125, -209.1839)" d="M 108.988464 203.40094 C 109.831055 203.466553 110.895409 203.702057 111.450417 204.36438 C 118.809578 213.146515 124.408768 214.299423 134.557343 208.823929 C 134.905975 209.621048 135.282822 210.96489 134.825089 211.373215 C 126.710281 218.612427 112.50592 214.390152 108.988464 203.40094 z" stroke-linecap="round"/>
</g>
		<g transform="matrix(1 0 0 1 -182.2878 52.9735)" id="Layer_1">
<path style="stroke: none; stroke-width: 1; stroke-dasharray: none; stroke-linecap: butt; stroke-dashoffset: 0; stroke-linejoin: miter; stroke-miterlimit: 4; is-custom-font: none; font-file-url: none; fill: rgb(206,217,230); fill-rule: nonzero; opacity: 1;" transform=" translate(-128.7122, -185.9735)" d="M 143.002731 193.538651 C 142.225555 193.213272 141.216263 192.637543 140.789368 191.773911 C 135.471497 181.015915 125.568695 177.681625 114.421585 183.049744 C 115.300644 178.076065 120.012901 178.334869 123.09449 178.455551 C 127.649818 178.633942 132.129318 180.748367 136.930527 182.148193 C 139.160385 185.890121 141.10083 189.522308 143.002731 193.538651 z" stroke-linecap="round"/>
</g>
		<g transform="matrix(1 0 0 1 -198.1905 51.2878)" id="Layer_1">
<path style="stroke: none; stroke-width: 1; stroke-dasharray: none; stroke-linecap: butt; stroke-dashoffset: 0; stroke-linejoin: miter; stroke-miterlimit: 4; is-custom-font: none; font-file-url: none; fill: rgb(206,217,230); fill-rule: nonzero; opacity: 1;" transform=" translate(-112.8095, -184.2878)" d="M 113.699684 182.838409 C 113.497826 183.904373 113.003929 184.769379 112.245041 185.796143 C 111.934395 185.101608 111.888741 184.245346 111.934578 183.123047 C 112.486595 182.783844 112.947121 182.710663 113.699684 182.838409 z" stroke-linecap="round"/>
</g>
		<g transform="matrix(1 0 0 1 -203.488 57.8456)" id="Layer_1">
<path style="stroke: none; stroke-width: 1; stroke-dasharray: none; stroke-linecap: butt; stroke-dashoffset: 0; stroke-linejoin: miter; stroke-miterlimit: 4; is-custom-font: none; font-file-url: none; fill: rgb(206,217,230); fill-rule: nonzero; opacity: 1;" transform=" translate(-107.5121, -190.8456)" d="M 110.01033 187.845642 C 109.360214 189.95108 108.657639 191.731796 107.749954 193.832397 C 107.544846 194.152283 107.395676 194.133148 107.3489 194.07579 C 106.549965 193.246414 105.797806 192.474396 105.01384 191.356171 C 105.974907 189.921371 106.890022 188.742035 108.00045 187.790665 C 108.421158 187.430222 109.292145 187.595337 110.01033 187.845642 z" stroke-linecap="round"/>
</g>
</g>
</g>
</svg>